<?xml version="1.0" encoding="UTF-8"?>
<svg id="uuid-29c35d77-3d57-4a30-8007-8713b185f466" data-name="doctor free" xmlns="http://www.w3.org/2000/svg" viewBox="0 0 5000 5000">
  <defs>
    <style>
      .uuid-5a55e82f-d00f-4240-a851-8a003ff0481e {
        fill: #999;
      }

      .uuid-5a55e82f-d00f-4240-a851-8a003ff0481e, .uuid-1a74304f-e942-4cf6-b5e2-09c35cc1ef70, .uuid-32793ca8-04e9-4af8-91eb-668278562386, .uuid-23cc4577-e123-4007-826a-c64928a129c8, .uuid-e912aac9-e7f8-4ce4-b889-27c1b119d8a2, .uuid-b658ff95-576f-4dc4-b5c5-fe8b4e272569, .uuid-c16ebf00-c631-4cf8-bd59-33386040444f, .uuid-c979884c-f190-4001-b81c-6465134b524b, .uuid-95e5f629-e61e-4f56-b89e-0805f9ba19a4, .uuid-da1f37f8-d5e0-4c8b-949c-f0e56435b681, .uuid-246b99fa-4428-40a2-8e6a-3ff82c103c90, .uuid-f70882e1-4ea0-46fb-a110-da4d35f3c1e9, .uuid-51f4f21f-e0f2-45f4-9844-61f87a687811, .uuid-292d2f15-661f-4f12-b2fc-182380bdeb58, .uuid-5f885abc-fda1-4585-97b9-f0f78cb70ccb, .uuid-e993e73b-6bf3-41cb-b0b2-8a4b563c2a51, .uuid-d0aff527-c5ae-4b1e-bf77-2144449922f1, .uuid-0d6bdab3-090a-46a1-b5fc-c605e2eada1c, .uuid-8a04a2b9-9e44-4bfd-882f-287f83a4089f, .uuid-fd7b0f42-5c91-4197-87c8-a92ae2adfb40, .uuid-18fb4469-f692-46de-9778-32bb482db4f0, .uuid-6f8dbb97-461c-40fe-a96a-ee7a50be2ea7, .uuid-b2ac49e2-b07c-488c-a507-9d8d28231ca9, .uuid-1804d262-6215-4783-922f-84db9c2fa000, .uuid-792e030f-c76c-4366-ad77-5d2c3dcc7066, .uuid-580ea01d-001b-40e1-a8ad-01b2f065b993, .uuid-d161d9cf-841c-43b5-a8ba-607bdbd391db, .uuid-2c40bc09-437c-4b9d-a216-b637c2cca8ff, .uuid-7ba1c4ed-d307-4676-8a35-956cd15fa6b8, .uuid-eb7fdaaa-4ee9-4917-a1a7-54f86d01861a, .uuid-53781ee7-2b28-4d6a-b437-dce3f02e526c, .uuid-4c522bc8-0064-4965-8038-460afe83e72c, .uuid-2a7a0ace-1d72-4487-81cb-f5f80e6877d8, .uuid-a10e3299-ccfe-4f1a-a402-89bfc9817866, .uuid-b7316ac9-a56f-4dd7-b9c0-40f068b81ee8, .uuid-d4049c95-5f7b-4e95-8dfa-a142dd9843c6, .uuid-3b651df8-e705-432d-b07e-9fe350129fc9, .uuid-de2fae60-31c0-460f-ad33-10a544c10efc, .uuid-b1e14822-053c-48bb-9c0a-e79ccb4e6ca5, .uuid-fe06db6c-416a-4042-ba16-91ee853025e9 {
        stroke-width: 0px;
      }

      .uuid-1a74304f-e942-4cf6-b5e2-09c35cc1ef70, .uuid-2c40bc09-437c-4b9d-a216-b637c2cca8ff {
        fill: #074351;
      }

      .uuid-32793ca8-04e9-4af8-91eb-668278562386, .uuid-580ea01d-001b-40e1-a8ad-01b2f065b993 {
        fill: #666;
      }

      .uuid-23cc4577-e123-4007-826a-c64928a129c8, .uuid-f70882e1-4ea0-46fb-a110-da4d35f3c1e9 {
        fill: #225d77;
      }

      .uuid-e912aac9-e7f8-4ce4-b889-27c1b119d8a2 {
        fill: #191938;
      }

      .uuid-b658ff95-576f-4dc4-b5c5-fe8b4e272569 {
        fill: #66ced3;
      }

      .uuid-c16ebf00-c631-4cf8-bd59-33386040444f, .uuid-95e5f629-e61e-4f56-b89e-0805f9ba19a4, .uuid-246b99fa-4428-40a2-8e6a-3ff82c103c90, .uuid-f70882e1-4ea0-46fb-a110-da4d35f3c1e9, .uuid-5f885abc-fda1-4585-97b9-f0f78cb70ccb, .uuid-6f8dbb97-461c-40fe-a96a-ee7a50be2ea7, .uuid-1804d262-6215-4783-922f-84db9c2fa000, .uuid-580ea01d-001b-40e1-a8ad-01b2f065b993, .uuid-d161d9cf-841c-43b5-a8ba-607bdbd391db, .uuid-2c40bc09-437c-4b9d-a216-b637c2cca8ff, .uuid-7ba1c4ed-d307-4676-8a35-956cd15fa6b8, .uuid-eb7fdaaa-4ee9-4917-a1a7-54f86d01861a, .uuid-4c522bc8-0064-4965-8038-460afe83e72c, .uuid-2a7a0ace-1d72-4487-81cb-f5f80e6877d8, .uuid-a10e3299-ccfe-4f1a-a402-89bfc9817866, .uuid-b7316ac9-a56f-4dd7-b9c0-40f068b81ee8, .uuid-d4049c95-5f7b-4e95-8dfa-a142dd9843c6, .uuid-b1e14822-053c-48bb-9c0a-e79ccb4e6ca5, .uuid-fe06db6c-416a-4042-ba16-91ee853025e9 {
        fill-rule: evenodd;
      }

      .uuid-c16ebf00-c631-4cf8-bd59-33386040444f, .uuid-da1f37f8-d5e0-4c8b-949c-f0e56435b681 {
        fill: #e6e6e6;
      }

      .uuid-c979884c-f190-4001-b81c-6465134b524b {
        fill: #0c0c19;
      }

      .uuid-95e5f629-e61e-4f56-b89e-0805f9ba19a4, .uuid-de2fae60-31c0-460f-ad33-10a544c10efc {
        fill: #f2f2f2;
      }

      .uuid-51f4f21f-e0f2-45f4-9844-61f87a687811 {
        fill: #29abe2;
      }

      .uuid-292d2f15-661f-4f12-b2fc-182380bdeb58, .uuid-b1e14822-053c-48bb-9c0a-e79ccb4e6ca5 {
        fill: #59c9ef;
      }

      .uuid-5f885abc-fda1-4585-97b9-f0f78cb70ccb, .uuid-8a04a2b9-9e44-4bfd-882f-287f83a4089f {
        fill: #f7ba9b;
      }

      .uuid-e993e73b-6bf3-41cb-b0b2-8a4b563c2a51, .uuid-4c522bc8-0064-4965-8038-460afe83e72c {
        fill: #98dfff;
      }

      .uuid-d0aff527-c5ae-4b1e-bf77-2144449922f1 {
        fill: gray;
      }

      .uuid-0d6bdab3-090a-46a1-b5fc-c605e2eada1c, .uuid-b7316ac9-a56f-4dd7-b9c0-40f068b81ee8 {
        fill: #b3b3b3;
      }

      .uuid-fd7b0f42-5c91-4197-87c8-a92ae2adfb40 {
        fill: #dbfaff;
      }

      .uuid-18fb4469-f692-46de-9778-32bb482db4f0, .uuid-1804d262-6215-4783-922f-84db9c2fa000 {
        fill: #ccc;
      }

      .uuid-6f8dbb97-461c-40fe-a96a-ee7a50be2ea7 {
        fill: #f7c69b;
      }

      .uuid-b2ac49e2-b07c-488c-a507-9d8d28231ca9, .uuid-eb7fdaaa-4ee9-4917-a1a7-54f86d01861a {
        fill: #fff;
      }

      .uuid-792e030f-c76c-4366-ad77-5d2c3dcc7066 {
        fill: #edba29;
      }

      .uuid-d161d9cf-841c-43b5-a8ba-607bdbd391db {
        fill: #f6b99a;
      }

      .uuid-7ba1c4ed-d307-4676-8a35-956cd15fa6b8 {
        fill: #f9acb9;
      }

      .uuid-53781ee7-2b28-4d6a-b437-dce3f02e526c {
        fill: #64648e;
      }

      .uuid-2a7a0ace-1d72-4487-81cb-f5f80e6877d8 {
        fill: #df7f9c;
      }

      .uuid-a10e3299-ccfe-4f1a-a402-89bfc9817866 {
        fill: #f9cc3d;
      }

      .uuid-d4049c95-5f7b-4e95-8dfa-a142dd9843c6 {
        fill: #ff8d9c;
      }

      .uuid-3b651df8-e705-432d-b07e-9fe350129fc9 {
        fill: #dba089;
      }

      .uuid-fe06db6c-416a-4042-ba16-91ee853025e9 {
        fill: #e5a385;
      }
    </style>
  </defs>
  <rect class="uuid-b2ac49e2-b07c-488c-a507-9d8d28231ca9" width="5000" height="5000"/>
  <g>
    <path class="uuid-fd7b0f42-5c91-4197-87c8-a92ae2adfb40" d="m0,0s713.47,182.36,1091.77,406.02c356.1,210.53,609.99,496.34,858.69,971.06,327.95,626,201.72,1101.25,191.42,1291.11-10.29,189.87,99.15,556.58,407.15,615.36,627.14,119.68,695.35,474.51,803.16,682.64,400.27,772.7,1566.08,3.98,1638.45,1033.5l-790.77.31H0V0Z"/>
    <path class="uuid-eb7fdaaa-4ee9-4917-a1a7-54f86d01861a" d="m3143.49,4328.15h-36.8c-6.67,0-12.08-5.99-12.08-13.38v-40.77c0-7.39-5.41-13.38-12.08-13.38h-6.65c-6.67,0-12.08,5.99-12.08,13.38v40.77c0,7.39-5.41,13.38-12.08,13.38h-37.13c-6.67,0-12.08,5.99-12.08,13.38v7.37c0,7.39,5.41,13.38,12.08,13.38h37.13c6.67,0,12.08,5.99,12.08,13.38v41.12c0,7.39,5.41,13.38,12.08,13.38h6.65c6.67,0,12.08-5.99,12.08-13.38v-41.12c0-7.39,5.41-13.38,12.08-13.38h36.8c6.67,0,12.08-5.99,12.08-13.38v-7.37c0-7.39-5.41-13.38-12.08-13.38Z"/>
    <path class="uuid-eb7fdaaa-4ee9-4917-a1a7-54f86d01861a" d="m525.88,1735.66h-36.8c-6.67,0-12.08-5.99-12.08-13.38v-40.77c0-7.39-5.41-13.38-12.08-13.38h-6.65c-6.67,0-12.08,5.99-12.08,13.38v40.77c0,7.39-5.41,13.38-12.08,13.38h-37.13c-6.67,0-12.08,5.99-12.08,13.38v7.37c0,7.39,5.41,13.38,12.08,13.38h37.13c6.67,0,12.08,5.99,12.08,13.38v41.12c0,7.39,5.41,13.38,12.08,13.38h6.65c6.67,0,12.08-5.99,12.08-13.38v-41.12c0-7.39,5.41-13.38,12.08-13.38h36.8c6.67,0,12.08-5.99,12.08-13.38v-7.37c0-7.39-5.41-13.38-12.08-13.38Z"/>
  </g>
  <g>
    <g>
      <g>
        <g>
          <path class="uuid-5f885abc-fda1-4585-97b9-f0f78cb70ccb" d="m1364.79,2015.33c2.02,31.98-17.93,171.34,13.22,206.95,28.23,21.34,60.75,36.27,59.6,39.14-37.15,43.79-130.15,200.74-281.35,192.49-265.57-14.48-356.11-151.19-396.15-184.82,94.06-12.21,131.86-180.66,122.92-275.11,70.35-56.44,328.98-12.21,437.76,39.91,8.35,14.2,32.61-35.04,43.99-18.56Z"/>
          <path class="uuid-fe06db6c-416a-4042-ba16-91ee853025e9" d="m894.89,2000.84l-7.37,15.71s69.17,154.14,119.33,203.09c50.18,48.94,196,77.87,257.13,75.64,61.15-2.23,140.35-57.19,140.35-57.19,0,0-21.48-10.14-24.95-18.1-25.34-58.2-12.77-206.23-12.77-206.23l-471.72-12.92Z"/>
          <path class="uuid-6f8dbb97-461c-40fe-a96a-ee7a50be2ea7" d="m1452.58,1648.47c30.09-14.3,73.61,16.08,48.52,93.54-25.06,77.47-19.05,172.88-65.43,165.73-46.37-7.14-51-248.7,16.9-259.28Z"/>
          <path class="uuid-5f885abc-fda1-4585-97b9-f0f78cb70ccb" d="m857.71,1612.48c-16.15-29.42-119.36-1.34-83.01,101.15,27.22,76.75,12.66,158.67,59.55,157.08,46.88-1.59,89.61-239.67,23.46-258.23Z"/>
          <path class="uuid-5f885abc-fda1-4585-97b9-f0f78cb70ccb" d="m1447.45,1648.47c34.75-25.42,118.38,18.56,74.65,87.29-53.93,84.8-45.18,179.13-91.55,171.99-46.37-7.14-51-248.7,16.9-259.28Z"/>
          <path class="uuid-d161d9cf-841c-43b5-a8ba-607bdbd391db" d="m1152.76,1416.88c-58.47-4.75-209.59-61.18-243.69-25.27-19.27,20.29-13.18,85.68-22.1,107.41-20.82,50.64-33.54,95.76-39.41,212.16-7.23,143.21-3.4,150.25,17.58,197.79,18.46,59.61,6.78,74.01,22.65,117.53,14.69,32.8,85.99,112.02,117.47,141.82,39.55,25.36,148.21,24.21,205.86,20.52,32.78-2.1,66.54-51.13,112.18-110.63,51.69-67.37,38.57-87.72,65.03-132.45,26.48-44.72,23.9-49.42,32.56-200.47,5.95-103.71.63-177.76-12.96-220.34-4.94-15.42,13.17-84.62-19.24-114.12-36.42-33.16-155.24,12.58-235.92,6.04Z"/>
          <path class="uuid-fe06db6c-416a-4042-ba16-91ee853025e9" d="m848.48,1737.28s-22.49,24.09-9.17,49.63c13.32,25.55,6.97,38.62-6.56,18.61-13.56-19.99-12.76-49.17-29.98-76.62-17.23-27.43-29.32-78.16-3.45-85.1,25.9-6.95,43.5,13.91,43.5,13.91,0,0-30.62-8.13-40.24,10.95-9.64,19.09,8.32,34.31,8.32,34.31,0,0-3.33-20.66,14.3-32.97,0,0-14.51,55.83-8.77,62.78,5.72,6.95,29.95-55.55,32.06,4.51Z"/>
          <path class="uuid-fe06db6c-416a-4042-ba16-91ee853025e9" d="m1434.7,1773.01s13.46,23.22-2.79,46.98c-16.27,23.79-5.5,40.88,10.33,22.63,15.81-18.24,18.49-47.3,38.85-72.53,20.36-25.2,38.37-74.13,13.51-84.08-24.89-9.98-44.85,8.64-44.85,8.64,0,0,31.37-4.41,38.67,15.66,7.29,20.1-12.34,33.08-12.34,33.08,0,0,5.76-20.11-10.3-34.43,0,0,6.44,52.13-.07,58.34-6.53,6.22-21.84-53.67-31.02,5.71Z"/>
          <path class="uuid-fe06db6c-416a-4042-ba16-91ee853025e9" d="m1352.75,1959.06c-4.58,71.74-87.01,193.49-77.14,182.4,12.65-14.18,83.97-99.53,88.41-114.41,4.44-14.88,20.05-53.98,28.85-73.75,6.64-14.87,19.57-30.4,23.85-55.2,5.54-31.98,11.04-125.89,13.67-214.89,2.64-89.01-16.51-169.75-16.51-169.75,0,0,22.59-67.73-18.1-99.69-40.7-31.98-91.71-10.23-107.91-9.5-16.2.75-98.91,13.99-136.44,8.85-37.53-5.13-174.54-39.95-212.07-35.67-37.53,4.29-41.04,38.67-41.71,63.54-.67,24.89-11.28,48.33-14.81,54.53-5.62,9.88-7.6,155.39-7.6,155.39l16.48-128.51s9.78-39.64,19-67.71c9.22-28.09,4.17-55.04,79.58-43.85,75.42,11.17,178.94,43.28,218.34,29.91,39.37-13.37,97.72-10.72,139.78,34.08,29.74,31.69,55.98,85.61,58.62,128.08,2.65,42.47,2.11,87.52-1.62,117.82-3.74,30.31,14.98,112.21-16.36,145.16-31.32,32.95-34.54,65.15-36.33,93.18Z"/>
        </g>
        <path class="uuid-2c40bc09-437c-4b9d-a216-b637c2cca8ff" d="m837.04,1601.46s10.8,7.29,11.44,43.58c.69,39.54,1.09,63.34,18.93,72.78l7.58,1.47s-1.17-114.07,4.87-160.04c6.04-45.97,6.97-122.48,42.15-150.03,24.79-19.41,58.42-18.26,131.11-6.31,72.69,11.95,59.3,39.03,149.37,19.92,90.06-19.12,130.45-21.91,166.29,14.94,35.85,36.84,38.23,209.83,39.43,245.32,1.2,35.49,1.39,62.38,1.39,62.38,0,0,17.17,0,21.03-24.89,3.86-24.89,15.67-41.9,16.81-72.09,6.14-162.91,28.88-226.92,25.89-268.75s-49.29-110.25-81.66-125.18c-32.37-14.94-77.06-60.93-165.06-79.66-127.75-27.19-241.35,16.08-316.03,75.83-74.68,59.75-62.12,129.02-73.55,350.76Z"/>
      </g>
      <g>
        <path class="uuid-4c522bc8-0064-4965-8038-460afe83e72c" d="m1281.82,2373.2s-69.38,19.32-75.27,81.8c-6.64,70.48-4.87,181.09-4.87,181.09l-63.79,879.47s201.96-234.84,266.37-409.78c67.13-182.3,173.32-744.43,173.32-744.43l-131.17-100.53-164.6,112.38Z"/>
        <g>
          <path class="uuid-4c522bc8-0064-4965-8038-460afe83e72c" d="m1367.89,2202.44s21.86,74.96-132.56,202.5c0,0,44.8,165.91,64.11,240.66,0,0,182.84-368.57,146.97-384.78-35.56-16.08-65.82-70.87-78.52-58.38Z"/>
          <path class="uuid-292d2f15-661f-4f12-b2fc-182380bdeb58" d="m1296.93,2646.25c-19.09-73.88-63.66-238.97-64.1-240.64l-.44-1.62,1.29-1.06c150.84-124.59,131.92-199.04,131.71-199.78l-.42-1.49,1.1-1.08c1.74-1.71,3.82-2.58,6.19-2.58,7.95,0,17.8,10.28,30.28,23.29,12.7,13.25,28.52,29.74,44.95,37.16,2.27,1.02,3.94,2.99,4.96,5.85,16.16,45.26-143.85,368.71-150.68,382.46l-3.1,6.25-1.75-6.76Zm73.89-442.75c2.41,12.4,8.97,85.03-132.54,202.37,4.55,16.82,43.09,159.8,61.94,232.32,58.03-117.52,159.46-338.19,147.34-372.15-.54-1.49-1.25-2.43-2.21-2.86-17.33-7.84-33.54-24.73-46.55-38.3-10.7-11.15-20.8-21.69-26.53-21.69-.54,0-1.01.1-1.44.3Z"/>
        </g>
        <path class="uuid-292d2f15-661f-4f12-b2fc-182380bdeb58" d="m1208.65,2444.98s11.19-12.83,18.35-14.79c14.03-3.83,38.75,162.64,71.28,229.34,0,0-17.6-94.5-43.02-182.02-12.87-44.27-19.27-78.27-28.16-69.31-8.9,8.96-18.45,36.77-18.45,36.77Z"/>
        <polygon class="uuid-4c522bc8-0064-4965-8038-460afe83e72c" points="1118.48 3461.65 1155.83 2596.47 1118.31 2437.67 818.44 2239.38 660.04 2342.55 1118.48 3461.65"/>
        <path class="uuid-f70882e1-4ea0-46fb-a110-da4d35f3c1e9" d="m1266.72,2525.18s-7.77,10.46-12.2,18.19c-4.42,7.73-7.18,19.33-13.25,28.17-6.08,8.83-11.05,11.59-11.05,11.59,0,0,5.52,11.6,0,12.7-5.53,1.11-82.47-25.92-106.22.04,0,0-.9-21.02-4.76-28.2-3.86-7.18-26.51-17.11-27.05-29.27-.57-12.15-16.58-12.7-25.98-29.82l-9.38-17.12s6.07-58.01,37.47-60.94c12.17-1.13,48.67,15.11,78.47,14.56,29.84-.55,72.95-72.39,93.93,80.1Z"/>
        <path class="uuid-f70882e1-4ea0-46fb-a110-da4d35f3c1e9" d="m1326.02,3027.06l-153.58,361.25-179.92-381.77s44.42-348.67,121.1-426.28c0,0,11.78-35.02,106.22-.03,0,0,34.78,173.96,106.18,446.83Z"/>
        <path class="uuid-2c40bc09-437c-4b9d-a216-b637c2cca8ff" d="m1029.49,2799.04s65.58-162.21,91.09-173.41c25.5-11.21,49.41,90.16,46.56,121.35-2.86,31.19,44.27,75.37,41.5,20.79-2.78-54.58,11.18-187.54,11.18-187.54,0,0-84.13-30.9-106.22.03-22.1,30.94-75.01,176.45-84.12,218.78Z"/>
        <path class="uuid-2c40bc09-437c-4b9d-a216-b637c2cca8ff" d="m1277.41,2976.5s-102.04,237.54-139.52,261.72c-37.46,24.19-145.38-231.68-145.38-231.68,0,0,29.06,153.43,50.74,201.73,22.45,50.01,75.23,253.37,75.23,253.37,0,0,71.52-180.43,158.92-485.15Z"/>
        <path class="uuid-b1e14822-053c-48bb-9c0a-e79ccb4e6ca5" d="m1264.54,2544.5s-7.38-7.53-10.93,0c-3.55,7.52-21.75,43.92-8.74,90.7,12.99,46.79,21.52,220.96,47.31,215.31,25.8-5.64,98.42-294.46,98.42-294.46,0,0,66.88-189.77,42.61-205.08l19.24-86.68,23.35,48.56,4.6,99.27s-61.97,327.48-157.42,607.72c0,0-68.05-253.34-81.42-322.38-13.37-69.04-21.72-117.24-21.72-117.24,0,0,3.04-8.16,0-12.7,0,0,12.07-6.55,15.5-14.67,3.44-8.12,24.97-22.14,31.38-27.68l-2.18,19.33Z"/>
        <path class="uuid-b1e14822-053c-48bb-9c0a-e79ccb4e6ca5" d="m1047.33,2526.04s12.13-13,20.79,0c8.66,13,24.11,29.46,28.52,32.93,4.41,3.46,0,21.3,0,21.3,0,0-28.52,10.76-49.3,92.21-20.8,81.44-50.26,237.39-67.58,227.86-17.33-9.53-115.8-281.95-153.42-404.14-37.62-122.19-54.52-162.12-35.03-151.9,19.5,10.22,219.63,329.92,219.63,329.92l2.93-50.36-8.12,27.83s-18.85-69.42-122.29-209.48c-77.3-104.67-127.25-166.05-127.25-166.05,0,0,30.81,173.06,77.55,313.94,46.74,140.88,158.75,428.69,158.75,428.69,0,0,29.19-189.95,53.93-276.66,24.75-86.71,43.55-128.96,74.75-168.89,0,0,1.83-6.71-12.35-21.15-6.69-6.81-21-15.64-24.85-22.94-3.85-7.31-.29-10.09-6.31-14.9-6.03-4.81-21.16-17.14-20.83-22.76,2.84-47.72,37.34-62.58,37.34-62.58,0,0-22.54-19.99-55.51,72.4-6.24,17.5-14.73,72.85-14.73,72.85l23.39-48.09Z"/>
        <path class="uuid-1a74304f-e942-4cf6-b5e2-09c35cc1ef70" d="m1066.53,2455.46s-13.05,28.18-9.68,36c3.38,7.83,3.49,20.72,13.01,27.22,9.53,6.5,8.61,3.77,14.14,10.45,5.55,6.67,7.52,19.44,14.89,25.07s20.19,6.67,20.36,13.47c0,0,6.5-14.88-3.03-21.81-9.53-6.93-13.86-28.02-23.39-34.08-9.53-6.07-22.53-11.3-19.5-26.46,3.03-15.16-6.06-31.41-6.06-31.41l-.73,1.55Z"/>
        <g>
          <path class="uuid-4c522bc8-0064-4965-8038-460afe83e72c" d="m866.54,2196.43s-16.74-6.35-24.41-2.72c-12.74,6.03-57.82,75.12-87.05,73.05,0,0,260.53,342.01,250.66,384.9,0,0,50.95-244.61,86.35-223.97,18.54,10.8,21.8,7.05,21.8,7.05,0,0-215.71-120.7-247.36-238.31Z"/>
          <path class="uuid-292d2f15-661f-4f12-b2fc-182380bdeb58" d="m1007.61,2652.06l.67.14-5.02-1.36c6.48-34.2-160.86-265.16-250.24-382.51l-3.49-4.57,5.73.41c18.38,1.27,44.52-28.73,63.53-50.5,10.19-11.66,17.55-20.09,22.23-22.3,1.93-.91,4.37-1.38,7.28-1.38,8.49,0,18.74,3.85,19.16,4.01l1.24.47.35,1.28c31,115.21,243.97,235.52,246.11,236.72l2.8,1.57-2.1,2.41c-.49.57-1.73,1.52-4.43,1.52-4.54,0-11.49-2.7-20.64-8.04-1.02-.59-2.02-.88-3.07-.88-23.88,0-60.55,133.24-79.36,222.79l-.1.4-.65-.19Zm83.8-227.55c-55.31-33.76-200.06-129.88-227.02-226.08-2.85-.97-10.15-3.24-16.09-3.24-2.14,0-3.83.29-5.06.87-3.69,1.75-11.87,11.11-20.52,21.03-18.14,20.77-42.57,48.76-62.6,52,27.87,36.73,222.17,294.45,246.06,368.16,12.41-56.62,49.67-213.4,81.54-213.4,1.26,0,2.49.22,3.7.65Z"/>
        </g>
      </g>
      <g>
        <path class="uuid-b2ac49e2-b07c-488c-a507-9d8d28231ca9" d="m429.85,4108.71l-28.57,828.65h1386.26l-2.82-646.27v-6.64l-.08-88.01v-.33l-.21-268.03c-.46-19.43-.87-38.65-1.2-57.66-.25-13.2-.46-26.32-.58-39.27v-.08c-2.91-220.45,3.03-411.83,13.66-575.24l.04-.66c32.76-502.84,109.97-740.72,111.47-745.37.04-.04.04-.08.04-.08-218.58-53.8-395.81-201.27-423.42-225.1,0,0-.04,0-.04-.04-2.41-2.08-3.7-3.2-3.7-3.2l-1.41,4.65-6.39,20.8-2.28,7.39-178.35,580.6-1.25,4.07-35.58,115.79-9.84,32.09-.87,2.78v.04l-22.71,73.9-10.09,32.84-58.74,191.18-4.03,13.16-.04.08-20.38,66.43-7.76-23.33v-.04l-43.34-130.73-10.55-31.88-20.43-61.36s.04-.12,0-.17l-41.93-126.54-.04-.08-7.39-22.42-.04-.17-.04-.12-4.44-13.12v-.08l-72.82-219.74-24.7-74.52-125.63-379-.04-.17-.04-.08-19.72-59.49-.62-1.74v-.04l-3.24-9.8-6.68-4.15c-8.22,8.8-16.56,17.15-25.03,25.16,0,0-.04,0-.04.04-.71.71-1.41,1.41-2.16,2.03l-.04.04c-15.69,14.78-31.72,28.23-47.95,40.56-.04.04-.08.08-.12.12-140.24,106.9-293.06,129.82-322.12,133.31-3.24.37-4.94.54-4.94.54,152.49,199.32,81,818.65,81,818.65l27.11,304.02.29,3.07,1.16,12.91.33,3.86,6.43,72.07-15.44,281.06c-.04.33-.04.71-.08,1.08l-7.8,141.82Z"/>
        <path class="uuid-da1f37f8-d5e0-4c8b-949c-f0e56435b681" d="m724.92,2289.35s-55.02,20.57-79.73,78.71c-17.11,40.25-68.33,172.27-68.33,172.27l136.29,17.32-149.01,21.56s176.24,592.3,496.78,809.09c0,0-190.87-289.79-273.26-407.88-110.21-157.93-204.98-388.13-204.98-388.13l129.73-26.16,5.73-10.63-28.01-236.86s10.4-6.58,16.15-10.83c6.2-4.59,18.63-18.46,18.63-18.46Z"/>
        <path class="uuid-da1f37f8-d5e0-4c8b-949c-f0e56435b681" d="m1494.87,2312.86s22.74,9.28,42.33,24.07c37.04,27.97,65.34,63.57,83.29,92.61,22.99,37.2,71.85,182.71,71.85,182.71l-137.25,5.9,146.68,33.92s-191.82,546.97-529.34,736.25c0,0,201.05-251.01,293.02-361.81,123-148.18,216.75-362.95,216.75-362.95l-127.09-36.91-4.82-11.07-9.35-237.74.42-18.2s-11.06-10.52-13.2-12.05c-16.34-11.7-33.29-34.73-33.29-34.73Z"/>
        <g>
          <g>
            <g>
              <path class="uuid-32793ca8-04e9-4af8-91eb-668278562386" d="m997.86,3588.87c0,20.26,21.29,36.68,47.54,36.68s47.54-16.42,47.54-36.68-21.28-36.67-47.54-36.67c-20.89,0-38.64,10.4-45.01,24.86-1.63,3.7-2.52,7.68-2.52,11.81Z"/>
              <g>
                <path class="uuid-d0aff527-c5ae-4b1e-bf77-2144449922f1" d="m1003.27,3583.46c0,20.26,21.27,36.68,47.53,36.68s47.55-16.42,47.55-36.68-21.29-36.67-47.55-36.67-47.53,16.42-47.53,36.67Z"/>
                <g>
                  <path class="uuid-b2ac49e2-b07c-488c-a507-9d8d28231ca9" d="m1003.65,3577.68c0,20.26,21.29,36.67,47.54,36.67s47.53-16.41,47.53-36.67-21.27-36.68-47.53-36.68-47.54,16.43-47.54,36.68Z"/>
                  <path class="uuid-18fb4469-f692-46de-9778-32bb482db4f0" d="m1001.08,3577.68c0-21.64,22.48-39.25,50.11-39.25s50.1,17.61,50.1,39.25-22.48,39.25-50.1,39.25-50.11-17.61-50.11-39.25Zm5.14,0c0,18.8,20.17,34.1,44.97,34.1s44.96-15.3,44.96-34.1-20.17-34.11-44.96-34.11-44.97,15.3-44.97,34.11Z"/>
                </g>
                <path class="uuid-c979884c-f190-4001-b81c-6465134b524b" d="m1024.26,3590.87c0,4.31,4.53,7.8,10.12,7.8s10.13-3.49,10.13-7.8-4.54-7.81-10.13-7.81-10.12,3.5-10.12,7.81Z"/>
                <path class="uuid-e912aac9-e7f8-4ce4-b889-27c1b119d8a2" d="m1028.46,3589.17c0,3.24,3.44,5.85,7.67,5.85s7.67-2.62,7.67-5.85-3.44-5.85-7.67-5.85-7.67,2.62-7.67,5.85Z"/>
                <path class="uuid-c979884c-f190-4001-b81c-6465134b524b" d="m1062.09,3569.25c0,4.31,4.54,7.81,10.13,7.81s10.1-3.5,10.1-7.81-4.53-7.8-10.1-7.8-10.13,3.49-10.13,7.8Z"/>
                <path class="uuid-e912aac9-e7f8-4ce4-b889-27c1b119d8a2" d="m1065.02,3569.48c0,3.51,3.81,6.34,8.52,6.34s8.51-2.84,8.51-6.34-3.81-6.34-8.51-6.34-8.52,2.83-8.52,6.34Z"/>
              </g>
              <path class="uuid-5a55e82f-d00f-4240-a851-8a003ff0481e" d="m1075.05,3573.08s-2.06-6.98-7.52-5.4c-5.45,1.57-30.81,12.24-34.24,21.19,0,0,1.82,5.48,4.52,4.13,2.7-1.35,26.16-19.59,37.24-19.92Z"/>
            </g>
            <polygon class="uuid-32793ca8-04e9-4af8-91eb-668278562386" points="973.99 3588.87 1000.49 3600.87 1000.38 3577.06 973.99 3588.87"/>
          </g>
          <g>
            <path class="uuid-53781ee7-2b28-4d6a-b437-dce3f02e526c" d="m1090.52,3583.85s10.79-26.87-30.94-37.89c0,0,34.98,8.32,30.94,37.89Z"/>
            <path class="uuid-53781ee7-2b28-4d6a-b437-dce3f02e526c" d="m1011.47,3580.33s5.98,21.78,28.6,27.3c0,0-21.74-2.03-28.6-27.3Z"/>
          </g>
        </g>
        <g>
          <g>
            <g>
              <path class="uuid-32793ca8-04e9-4af8-91eb-668278562386" d="m987.58,3902.47c0,20.25,21.29,36.68,47.54,36.68s47.54-16.43,47.54-36.68-21.29-36.67-47.54-36.67c-20.9,0-38.65,10.4-45.02,24.86-1.63,3.71-2.52,7.68-2.52,11.81Z"/>
              <g>
                <path class="uuid-d0aff527-c5ae-4b1e-bf77-2144449922f1" d="m992.98,3897.07c0,20.25,21.28,36.67,47.54,36.67s47.54-16.42,47.54-36.67-21.28-36.68-47.54-36.68-47.54,16.42-47.54,36.68Z"/>
                <g>
                  <path class="uuid-b2ac49e2-b07c-488c-a507-9d8d28231ca9" d="m993.37,3891.28c0,20.26,21.29,36.67,47.54,36.67s47.53-16.41,47.53-36.67-21.27-36.68-47.53-36.68-47.54,16.42-47.54,36.68Z"/>
                  <path class="uuid-18fb4469-f692-46de-9778-32bb482db4f0" d="m990.8,3891.28c0-21.64,22.48-39.25,50.11-39.25s50.1,17.61,50.1,39.25-22.48,39.24-50.1,39.24-50.11-17.6-50.11-39.24Zm5.14,0c0,18.8,20.17,34.1,44.97,34.1s44.96-15.3,44.96-34.1-20.17-34.11-44.96-34.11-44.97,15.3-44.97,34.11Z"/>
                </g>
                <path class="uuid-c979884c-f190-4001-b81c-6465134b524b" d="m1013.98,3904.46c0,4.31,4.53,7.81,10.12,7.81s10.13-3.5,10.13-7.81-4.54-7.8-10.13-7.8-10.12,3.49-10.12,7.8Z"/>
                <path class="uuid-e912aac9-e7f8-4ce4-b889-27c1b119d8a2" d="m1018.17,3902.78c0,3.23,3.43,5.85,7.67,5.85s7.66-2.62,7.66-5.85-3.43-5.86-7.66-5.86-7.67,2.62-7.67,5.86Z"/>
                <path class="uuid-c979884c-f190-4001-b81c-6465134b524b" d="m1051.81,3882.85c0,4.31,4.54,7.81,10.13,7.81s10.11-3.5,10.11-7.81-4.53-7.81-10.11-7.81-10.13,3.5-10.13,7.81Z"/>
                <path class="uuid-e912aac9-e7f8-4ce4-b889-27c1b119d8a2" d="m1054.73,3883.08c0,3.5,3.81,6.35,8.52,6.35s8.51-2.85,8.51-6.35-3.8-6.34-8.51-6.34-8.52,2.83-8.52,6.34Z"/>
              </g>
              <path class="uuid-5a55e82f-d00f-4240-a851-8a003ff0481e" d="m1064.76,3886.67s-2.06-6.97-7.51-5.4c-5.45,1.58-30.82,12.25-34.24,21.19,0,0,1.81,5.48,4.52,4.14,2.7-1.35,26.16-19.58,37.23-19.93Z"/>
            </g>
            <polygon class="uuid-32793ca8-04e9-4af8-91eb-668278562386" points="963.71 3902.47 990.21 3914.47 990.1 3890.65 963.71 3902.47"/>
          </g>
          <g>
            <path class="uuid-53781ee7-2b28-4d6a-b437-dce3f02e526c" d="m1080.24,3897.45s10.78-26.87-30.94-37.9c0,0,34.98,8.33,30.94,37.9Z"/>
            <path class="uuid-53781ee7-2b28-4d6a-b437-dce3f02e526c" d="m1001.19,3893.93s5.98,21.79,28.61,27.3c0,0-21.74-2.02-28.61-27.3Z"/>
          </g>
        </g>
        <rect class="uuid-da1f37f8-d5e0-4c8b-949c-f0e56435b681" x="435.43" y="2975.61" width="278.04" height="65.42"/>
        <path class="uuid-de2fae60-31c0-460f-ad33-10a544c10efc" d="m401.28,4937.36h126.57s-12.32-111.06,1.23-180.51c2.57-17.02,5.27-30.1,8.1-37.99,18.02-50.11,324.74,96.11,549.96,161.91l2.12.62c7.97,2.33,15.78,4.53,23.5,6.6,18.22,4.94,35.79,9.26,52.48,12.75,1.25.04,2.45.04,3.7.04,47.99,0,95.44-2.28,142.27-6.73,130.9-88.18,440.48-553.11,473.53-602.97,1.83-2.86,2.82-4.36,2.82-4.36l-2.82-.66-1.2-.29-489.34-116.24-30.06-7.14-138.04-32.8-16.27-3.86-5.94-1.37-106.7-25.37c-.08,0-.17-.04-.25-.08l-29.64-7.02h-.04l-59.28-14.07s-2.45-3.03-6.93-8.68c-41.72-52.1-260.26-325.15-336.86-425.54-33.09-43.38-50.19-127.2-58.74-213.35v-.75c-7.93-79.09-8.55-160.08-7.76-213.35v-.29c0-.21.04-.46,0-.66,0-.21,0-.54.04-.95.46-29.52,1.37-50.19,1.7-56.83-2.62,31.84-31.3,394.27-61.65,808.39-.04.33-.04.71-.08,1.08-3.36,46.12-6.77,92.91-10.17,139.95-14.16,196.04-26.2,649.69-26.2,830.52Z"/>
        <path class="uuid-18fb4469-f692-46de-9778-32bb482db4f0" d="m1091.38,4672.52c7.85.46,15.69.83,23.58,1.12.12-3.9.25-7.8.37-11.75,1.7-53.93,7.24-43.95,8.61-103.32,2.41-103.91-2.24-55.47-.74-166.4.04-1.66.04-3.36.08-5.02.37-27.57.71-55.13,1.04-82.62v-2.24c.66-58.2,1.25-116.08,1.74-172.7.75-88.68,1.33-174.32,1.7-253.49,1.16-228.75,1.04-403.45.95-441.31v-7.64l-.21,8.18v.04l-12.37,456.38-6.35,233.98-4.36,160.54-.08,2.99-2.49,91.75-.12,4.94-.08,1.78-.12,4.73-1.95,154.36-8.73,108.47-.46,17.23Z"/>
        <path class="uuid-de2fae60-31c0-460f-ad33-10a544c10efc" d="m1787.53,3019.85l.46,837.32s-122.73-561.1-.46-837.32Z"/>
      </g>
      <g>
        <path class="uuid-5f885abc-fda1-4585-97b9-f0f78cb70ccb" d="m3299.4,3781.99s-114.58,69.87-200.98,88.08c-86.4,18.21-303.1-106.38-393.86-131.61-90.75-25.23-184.65,5.02-184.65,5.02,0,0,24.55-139.67,90.23-182.23,65.68-42.56,125.25,25.16,202.49,1.56,77.25-23.59,361.22-94.18,379.42-74.09,18.19,20.09,8.1,48.56-38.57,61.76-46.67,13.2-90.09,3.84-119.12,37.63-29.03,33.78,194.69,60.51,261.82,21.79,0,0,74.03-.97,41.54,33.34,0,0,72.83-6.83,24.27,38.5-48.56,45.34-117.93,63.15-117.93,63.15,0,0,79.89-18.69,77.81,2.77-2.08,21.46-22.47,34.32-22.47,34.32Z"/>
        <g>
          <path class="uuid-b2ac49e2-b07c-488c-a507-9d8d28231ca9" d="m1907.8,2509.77s-159.82,776.63-119.81,845.6c50.16,86.45,109.28,130.94,157.19,186.49,0,0,137.13,140.49,296.29,155.05,58.9,5.39,113.44,61.35,168.64,49.7,55.2-11.65,412.5,96.43,389.46,70.62-88.71-99.33-79.39-264.49,12.54-290.05,0,0-172.24-108.36-219.37-124.92-38.48-13.52-67.05-12.5-101.91-33.65-16.35-9.92-41.31-36.77-62.23-44.52-28.72-10.64-22.95,13.29-46.96-2.13-14.24-9.13-30.56-31.07-46.72-36.01-10.7-3.26-44.63,2.82-44.63,2.82,0,0-12.49-3.92-49.28-64-65.12-106.33-165.53-262.24-165.53-262.24,0,0-60.46-421.22-167.71-452.76Z"/>
          <path class="uuid-e993e73b-6bf3-41cb-b0b2-8a4b563c2a51" d="m2843.67,3532.45s-114.26,133.24,38.28,296.21c0,0-20.04-2.69-45.07-4.09-10.57-.59-43.08-14.11-43.08-14.11,0,0-70.55-88.88-52.72-184.79,18.1-97.35,48.04-102.34,48.04-102.34l54.56,9.11Z"/>
          <path class="uuid-da1f37f8-d5e0-4c8b-949c-f0e56435b681" d="m2141.89,3436.3s10.67,13.82,26.82-20.75c16.15-34.56,90.82-119.32,90.82-119.32,0,0-92,58.07-117.64,140.07Z"/>
          <path class="uuid-da1f37f8-d5e0-4c8b-949c-f0e56435b681" d="m2043.35,3443.74s8.42,15.31,43.55-23.94c35.13-39.25,167.17-136.25,167.17-136.25,0,0-143.97,67.36-210.71,160.19Z"/>
        </g>
      </g>
      <g>
        <g>
          <path class="uuid-b2ac49e2-b07c-488c-a507-9d8d28231ca9" d="m341.78,2469.63s-74.27-10.55-85.26,26.27c-14.59,48.92-44.6,114.44-44.6,114.44v28.37s-97.68,185.93-58.5,345.33c0,0-21.53,51.67-14.38,167.98,3.02,49.23-37.65,135.45-35.56,215.16,2.62,99.92-51.05,233.34-35.6,305.05,0,0,53.07,189.01,185.82,278.03,49.12,32.94,70.19,108.19,124.23,124.41,54.04,16.21,315.9,282.24,308.04,248.55-30.29-129.68,85.57-286.38,178.51-264.77,0,0-127.84-161.45-161.28-198.56-27.3-30.3-52.87-43.09-73.34-78.36-9.6-16.54-18.65-52.06-33.3-68.89-20.11-23.1-26.51.67-40.2-24.36-8.12-14.83-11.94-41.92-23.77-53.99-7.83-7.98-40.53-18.91-40.53-18.91,0,0-13.37-19.1,6.07-86.81,16.69-58.17-.54-313.03-.54-313.03,0,0,31.39-443.93-155.81-745.91Z"/>
          <path class="uuid-e993e73b-6bf3-41cb-b0b2-8a4b563c2a51" d="m879.29,4089.07s-182.35,67.51-126.51,283.64c0,0-16.3-11.95-37.61-25.18-9-5.58-32.42-34.58-32.42-34.58,0,0-.74-120.98,60.85-196.62,62.52-76.78,106.87-61.48,106.87-61.48l28.81,34.22Z"/>
          <path class="uuid-da1f37f8-d5e0-4c8b-949c-f0e56435b681" d="m291.1,3673.78s2.75,17.24,33.49-5.37c30.74-22.6,136.87-61.23,136.87-61.23,0,0-108.58,6.91-170.36,66.6Z"/>
          <path class="uuid-da1f37f8-d5e0-4c8b-949c-f0e56435b681" d="m201.04,3633.11s.06,17.47,49.69-.15c49.64-17.62,212-39.52,212-39.52,0,0-158.65-9.83-261.7,39.68Z"/>
        </g>
        <g>
          <path class="uuid-8a04a2b9-9e44-4bfd-882f-287f83a4089f" d="m1073.43,4189.27s-26.86-19.66-40.79-60.77c-10.12-29.87-60.31-34.93-102.7-53.26-23.12-10-117.46-19.65-158.23,55.99-40.72,75.63-8.48,41.94-24.72,68.27-16.23,26.33-7.97,54.47-8.59,76.88-.6,22.42-8.09,72.38,5.01,91.19,13.09,18.8,21.82,25.56,44.86,40.44,23.02,14.88,86.19,61.57,114.84,60.16,28.65-1.42,85.96-21.28,83.17-30.31,0,0,47.53-11.63,53.76-27.71,0,0,47.38,6.37,58.5-25.06,0,0,32.76,8.58,49.13-7.43,10.45-10.24,23.86-25.32-6.72-57.54-30.6-32.22-92.41-68.88-111.41-86.74-18.99-17.85-56.15-73.44-52.9-66.16,25.54,57.33,106.25,105.56,106.25,105.56,0,0,3.06-37.22,3.74-45.9,1.62-20.37-13.21-37.6-13.21-37.6Z"/>
          <path class="uuid-3b651df8-e705-432d-b07e-9fe350129fc9" d="m895.65,4229.06c84.5,76.99,85.04,76.76,100.57,85.95,17.81,10.53,102.09,72.24,102.09,72.24l4.69.52,8.05-.16s-55.52-45.22-80.09-60.6c-63.9-40.04-131.24-100.35-135.31-97.95Z"/>
          <path class="uuid-3b651df8-e705-432d-b07e-9fe350129fc9" d="m1045.57,4410.57l-5.53-.43-59.75-20.6-95.62-62.28s-27.75-15.15-31.39-16.51c0,0-7.09-17.4,6.52-7.34,15.71,11.64,105.55,73.95,119.24,80.29,16.26,7.51,66.53,26.87,66.53,26.87Z"/>
          <path class="uuid-3b651df8-e705-432d-b07e-9fe350129fc9" d="m991.52,4433.52l-5.52,6.38s-51.19-8.92-57.8-13.45c-6.61-4.54-42.77-25.19-55.79-31.88-13.03-6.68-43.12-17.64-48.24-18.69-5.11-1.05-8.33-10.42.9-7.97,9.21,2.45,75.37,35.02,88.61,44.1,13.23,9.07,33.3,16.54,45.8,19.37,12.49,2.82,32.05,2.15,32.05,2.15Z"/>
          <path class="uuid-3b651df8-e705-432d-b07e-9fe350129fc9" d="m1008.22,4333.05c-.25,1.7,2.95,36.83-31.23,43.53,0,0,4.21,6.87,8.04,4.46,3.84-2.42,27.93-23.16,23.19-47.99Z"/>
          <path class="uuid-3b651df8-e705-432d-b07e-9fe350129fc9" d="m974.9,4402.01c-.15.94,4.22,25.77-28.96,29.39,0,0,4.3,4.94,7.95,3.36,3.63-1.57,26.4-15.27,21.01-32.75Z"/>
          <path class="uuid-3b651df8-e705-432d-b07e-9fe350129fc9" d="m923.09,4431.81s-4.57,28.06-29.81,30.93c0,0,4.4,5.17,8.15,3.52,3.75-1.67,27.14-16.13,21.66-34.46Z"/>
          <path class="uuid-3b651df8-e705-432d-b07e-9fe350129fc9" d="m771.76,4294.51s-2.99,20.33,15.68,25.27c18.69,4.93,15.49,1.73,15.49,1.73,0,0-25.02.76-31.17-27Z"/>
          <path class="uuid-3b651df8-e705-432d-b07e-9fe350129fc9" d="m808.08,4224.5s-2.99,20.32,15.69,25.25c18.69,4.94,15.48,1.73,15.48,1.73,0,0-25.02.77-31.17-26.98Z"/>
          <path class="uuid-3b651df8-e705-432d-b07e-9fe350129fc9" d="m855.65,4155.73s-2.98,20.32,15.69,25.26c18.69,4.94,15.48,1.72,15.48,1.72,0,0-25.01.77-31.17-26.99Z"/>
          <path class="uuid-3b651df8-e705-432d-b07e-9fe350129fc9" d="m752.95,4360.8s-2.98,20.32,15.7,25.25c18.68,4.94,15.48,1.74,15.48,1.74,0,0-25.02.76-31.18-26.99Z"/>
        </g>
        <path class="uuid-23cc4577-e123-4007-826a-c64928a129c8" d="m938.73,4130.23l386.23-519.21,670.59,379.56-685.47,823.62-685.04-343.85,91.55-125.12s134.85,122.95,213.26,118.55c26.66-1.5,76.97-44.13,110.19-53.64,26.42-7.57,36.04-12.22,58.27-22.89,16.19-7.78,27.07,3.56,43.46-5.2,15.43-8.23,18.23-23.12,16.25-36.82-3.07-21.32-81.54-67.33-130.28-110.09-61.29-53.79-89.01-104.91-89.01-104.91Z"/>
      </g>
    </g>
    <g>
      <g>
        <path class="uuid-2c40bc09-437c-4b9d-a216-b637c2cca8ff" d="m1197.85,3108.72c0,54.77,44.4,99.17,99.17,99.17s99.17-44.4,99.17-99.17-44.4-99.17-99.17-99.17-99.17,44.4-99.17,99.17Z"/>
        <path class="uuid-1804d262-6215-4783-922f-84db9c2fa000" d="m1218.83,3108.72c0,43.96,35.65,79.6,79.61,79.6s79.6-35.64,79.6-79.6-35.64-79.6-79.6-79.6-79.61,35.63-79.61,79.6Z"/>
        <path class="uuid-580ea01d-001b-40e1-a8ad-01b2f065b993" d="m1236.41,3108.72c0,34.1,27.65,61.75,61.74,61.75s61.75-27.65,61.75-61.75-27.64-61.75-61.75-61.75-61.74,27.64-61.74,61.75Z"/>
        <path class="uuid-95e5f629-e61e-4f56-b89e-0805f9ba19a4" d="m1250.92,3109.93c0,26.75,21.69,48.45,48.44,48.45s48.45-21.7,48.45-48.45-21.68-48.44-48.45-48.44-48.44,21.68-48.44,48.44Z"/>
      </g>
      <path class="uuid-1a74304f-e942-4cf6-b5e2-09c35cc1ef70" d="m1291.74,3134.72c4.04,0,8-1.92,10.47-5.51,1.08-1.58,108.24-158.73,172.99-349.18,38.24-112.5,54.5-214.61,48.34-303.51-7.8-112.5-51.56-203.93-130.08-271.77-5.31-4.58-13.33-4-17.92,1.31-4.58,5.32-3.99,13.33,1.32,17.91,133.64,115.45,158.63,299.78,74.29,547.88-63.63,187.17-168.82,341.43-169.87,342.98-3.98,5.79-2.51,13.69,3.28,17.65,2.2,1.5,4.69,2.23,7.18,2.23Z"/>
      <path class="uuid-1a74304f-e942-4cf6-b5e2-09c35cc1ef70" d="m776.95,2714.25c1.82,0,3.65-.38,5.4-1.2,6.34-2.97,9.07-10.54,6.09-16.89-1.13-2.39-111.66-241.17-50.69-394.68,20-50.33,56.82-86.36,109.44-107.13,6.53-2.58,9.73-9.94,7.16-16.47-2.58-6.51-9.96-9.71-16.47-7.15-59.45,23.44-101.06,64.3-123.74,121.44-65.01,163.75,46.53,404.62,51.32,414.79,2.16,4.61,6.73,7.29,11.49,7.29Z"/>
      <g>
        <path class="uuid-1a74304f-e942-4cf6-b5e2-09c35cc1ef70" d="m805.92,3071.06c3.14,0,6.32-.92,9.11-2.85,7.31-5.03,9.16-15.06,4.12-22.36-1.08-1.56-106.8-156.63-79.02-246.45,7.44-24.05,23.98-40.73,50.56-50.97,28.05-10.81,53.62-9.67,78.16,3.49,85.11,45.63,123.76,215.53,124.14,217.24,1.94,8.67,10.51,14.16,19.19,12.21,8.68-1.93,14.14-10.52,12.21-19.19-1.69-7.58-42.38-186.09-140.35-238.61-32.83-17.6-68.14-19.33-104.92-5.16-35.89,13.83-59.35,37.89-69.74,71.51-32.35,104.72,78.52,267.31,83.25,274.18,3.13,4.52,8.15,6.96,13.26,6.96Z"/>
        <g>
          <path class="uuid-18fb4469-f692-46de-9778-32bb482db4f0" d="m913.45,3335.55c40.52,0,87.3-11.23,114.47-55.45,50.9-82.81-2.5-311.95-4.79-321.67l-31.31,7.41c14.79,62.59,45.2,238.03,8.7,297.41-40.7,66.22-152.54,30.25-153.66,29.88l-10.14,30.52c2.78.93,36.69,11.91,76.72,11.91Z"/>
          <path class="uuid-246b99fa-4428-40a2-8e6a-3ff82c103c90" d="m877.68,3299.66l-5.83,34.22s-44.72-2.83-47.88-10.24c-3.17-7.41.64-41.36,17.97-37.78,20.49,4.24,35.74,13.8,35.74,13.8Z"/>
        </g>
        <g>
          <path class="uuid-18fb4469-f692-46de-9778-32bb482db4f0" d="m1030.21,3283.62c84.51,0,137.77-100.94,140.22-105.67l-28.57-14.78c-.54,1.03-55.53,104.83-130.89,85.83-67.64-17.08-168.26-163.94-201.33-219.09l-27.59,16.55c5.14,8.56,126.8,209.94,221.05,233.73,9.36,2.36,18.4,3.43,27.11,3.43Z"/>
          <path class="uuid-246b99fa-4428-40a2-8e6a-3ff82c103c90" d="m1124.37,3189.36l28.05,20.42s30.06-33.21,27.15-40.73c-2.91-7.52-29.33-29.19-39.24-14.53-11.71,17.33-15.95,34.84-15.95,34.84Z"/>
        </g>
      </g>
    </g>
  </g>
  <g>
    <path class="uuid-c16ebf00-c631-4cf8-bd59-33386040444f" d="m3217.98,4784.29l9.79,2.89,599.36,194.4,192.59-545.5c8.01-22.21-3.33-46.35-25.04-53.33l-521.98-167.79c-20.52-6.6-42.89,4.58-50.87,25.41l-203.84,543.92Z"/>
    <g>
      <g>
        <path class="uuid-a10e3299-ccfe-4f1a-a402-89bfc9817866" d="m3724.31,4420.77c-.48,1.11-.91,2.34-1.3,3.48-2.61,7.67-3.02,15.68-1.52,23.09,2.88,14.88,13.24,27.81,28.29,32.76l162.65,53.66c14.8,4.84,30.6,1.01,41.84-8.82,5.1-4.38,9.22-9.88,12-16.37.51-1.19.94-2.42,1.37-3.65,7.82-23.22-4.21-48.39-26.68-55.82l-162.74-53.7c-21.49-7-44.87,4.28-53.92,25.36Z"/>
        <path class="uuid-4c522bc8-0064-4965-8038-460afe83e72c" d="m3840.24,4486.91c-8.53,11.9-17.71,17.15-17.71,17.15l89.9,29.7c1.44.52,2.95.86,4.38,1.17,1.06.25,2.08.39,3.18.55,4.27.52,8.5.42,12.6-.25,1.04-.16,2.09-.32,3.12-.68,3.56-.79,6.94-2.07,10.05-3.87,1.23-.58,2.29-1.24,3.35-1.9,1.85-1.13,3.57-2.41,5.16-3.85,5.1-4.38,9.22-9.88,12-16.37.51-1.19.94-2.42,1.37-3.65,7.82-23.22-4.21-48.39-26.68-55.82l-83.58-27.6s1.81,19.87-7.59,46.76c-2.62,7.46-6.06,13.67-9.56,18.63Z"/>
      </g>
      <path class="uuid-792e030f-c76c-4366-ad77-5d2c3dcc7066" d="m3721.49,4447.35c2.88,14.88,13.24,27.81,28.29,32.76l72.75,23.96s9.18-5.25,17.71-17.15l-118.75-39.56Z"/>
      <path class="uuid-51f4f21f-e0f2-45f4-9844-61f87a687811" d="m3822.53,4504.07l89.9,29.7c1.44.52,2.95.86,4.38,1.17,1.06.25,2.08.39,3.18.55,4.27.52,8.5.42,12.6-.25,1.04-.16,2.12-.4,3.12-.68,3.56-.79,6.94-2.07,10.05-3.87,1.23-.58,2.29-1.24,3.35-1.9,1.85-1.13,3.57-2.41,5.16-3.85l-114.03-38.04c-8.53,11.9-17.71,17.15-17.71,17.15Z"/>
    </g>
    <g>
      <g>
        <path class="uuid-a10e3299-ccfe-4f1a-a402-89bfc9817866" d="m3427.12,4324.61c-.48,1.11-.91,2.34-1.3,3.48-2.61,7.67-3.02,15.68-1.52,23.09,2.88,14.88,13.24,27.81,28.29,32.76l162.65,53.66c14.8,4.84,30.6,1.01,41.84-8.82,5.1-4.38,9.22-9.88,12-16.37.51-1.19.94-2.42,1.37-3.65,7.82-23.22-4.21-48.39-26.68-55.82l-162.74-53.7c-21.49-7-44.87,4.28-53.92,25.36Z"/>
        <path class="uuid-4c522bc8-0064-4965-8038-460afe83e72c" d="m3543.04,4390.74c-8.53,11.9-17.71,17.15-17.71,17.15l89.9,29.7c1.44.52,2.95.86,4.38,1.17,1.06.25,2.08.39,3.18.55,4.27.52,8.5.42,12.6-.25,1.04-.16,2.09-.32,3.12-.68,3.56-.79,6.94-2.07,10.05-3.87,1.23-.58,2.29-1.24,3.35-1.9,1.85-1.13,3.57-2.41,5.16-3.85,5.1-4.38,9.22-9.88,12-16.37.51-1.19.94-2.42,1.37-3.65,7.82-23.22-4.21-48.39-26.68-55.82l-83.58-27.6s1.81,19.87-7.59,46.76c-2.62,7.46-6.06,13.67-9.56,18.63Z"/>
      </g>
      <path class="uuid-792e030f-c76c-4366-ad77-5d2c3dcc7066" d="m3424.29,4351.18c2.88,14.88,13.24,27.81,28.29,32.76l72.75,23.96s9.18-5.25,17.71-17.15l-118.75-39.56Z"/>
      <path class="uuid-51f4f21f-e0f2-45f4-9844-61f87a687811" d="m3525.33,4407.9l89.9,29.7c1.44.52,2.95.86,4.38,1.17,1.06.25,2.08.39,3.18.55,4.27.52,8.5.42,12.6-.25,1.04-.16,2.12-.4,3.12-.68,3.56-.79,6.94-2.07,10.05-3.87,1.23-.58,2.29-1.24,3.35-1.9,1.85-1.13,3.57-2.41,5.16-3.85l-114.03-38.04c-8.53,11.9-17.71,17.15-17.71,17.15Z"/>
    </g>
    <g>
      <g>
        <path class="uuid-a10e3299-ccfe-4f1a-a402-89bfc9817866" d="m3670.39,4546.39c-.48,1.11-.91,2.34-1.3,3.48-2.61,7.67-3.02,15.68-1.52,23.09,2.88,14.88,13.24,27.81,28.29,32.76l162.65,53.66c14.8,4.84,30.6,1.01,41.84-8.82,5.1-4.38,9.22-9.88,12-16.37.51-1.19.94-2.42,1.37-3.65,7.82-23.22-4.21-48.39-26.68-55.82l-162.74-53.7c-21.49-7-44.87,4.28-53.92,25.36Z"/>
        <path class="uuid-4c522bc8-0064-4965-8038-460afe83e72c" d="m3786.31,4612.53c-8.53,11.9-17.71,17.15-17.71,17.15l89.9,29.7c1.44.52,2.95.86,4.38,1.17,1.06.25,2.08.39,3.18.55,4.27.52,8.5.42,12.6-.25,1.04-.16,2.09-.32,3.12-.68,3.56-.8,6.94-2.07,10.05-3.87,1.23-.58,2.29-1.24,3.35-1.9,1.85-1.13,3.57-2.41,5.16-3.85,5.1-4.38,9.22-9.88,12-16.37.51-1.19.94-2.42,1.37-3.65,7.82-23.22-4.21-48.39-26.68-55.82l-83.58-27.6s1.81,19.87-7.59,46.76c-2.62,7.46-6.06,13.67-9.56,18.63Z"/>
      </g>
      <path class="uuid-792e030f-c76c-4366-ad77-5d2c3dcc7066" d="m3667.56,4572.97c2.88,14.88,13.24,27.81,28.29,32.76l72.75,23.96s9.18-5.25,17.71-17.15l-118.75-39.56Z"/>
      <path class="uuid-51f4f21f-e0f2-45f4-9844-61f87a687811" d="m3768.6,4629.68l89.9,29.7c1.44.52,2.95.86,4.38,1.17,1.06.25,2.08.39,3.18.55,4.27.52,8.5.42,12.6-.25,1.04-.16,2.12-.4,3.12-.68,3.56-.8,6.94-2.07,10.05-3.87,1.23-.58,2.29-1.24,3.35-1.9,1.85-1.13,3.57-2.41,5.16-3.85l-114.03-38.04c-8.53,11.9-17.71,17.15-17.71,17.15Z"/>
    </g>
    <g>
      <g>
        <path class="uuid-a10e3299-ccfe-4f1a-a402-89bfc9817866" d="m3376.98,4451.85c-.48,1.11-.91,2.34-1.3,3.48-2.61,7.67-3.02,15.68-1.52,23.09,2.88,14.88,13.24,27.81,28.29,32.76l162.65,53.66c14.8,4.84,30.6,1.01,41.84-8.82,5.1-4.38,9.22-9.88,12-16.37.51-1.19.94-2.42,1.37-3.65,7.82-23.22-4.21-48.39-26.68-55.82l-162.74-53.7c-21.49-7-44.87,4.28-53.92,25.36Z"/>
        <path class="uuid-4c522bc8-0064-4965-8038-460afe83e72c" d="m3492.9,4517.99c-8.53,11.9-17.71,17.15-17.71,17.15l89.9,29.7c1.44.52,2.95.86,4.38,1.17,1.06.25,2.08.39,3.18.55,4.27.52,8.5.42,12.6-.25,1.04-.16,2.09-.32,3.12-.68,3.56-.79,6.94-2.07,10.05-3.87,1.23-.58,2.29-1.24,3.35-1.9,1.85-1.13,3.57-2.41,5.16-3.85,5.1-4.38,9.22-9.88,12-16.37.51-1.19.94-2.42,1.37-3.65,7.82-23.22-4.21-48.39-26.68-55.82l-83.58-27.6s1.81,19.87-7.59,46.76c-2.62,7.46-6.06,13.67-9.56,18.63Z"/>
      </g>
      <path class="uuid-792e030f-c76c-4366-ad77-5d2c3dcc7066" d="m3374.16,4478.43c2.88,14.88,13.24,27.81,28.29,32.76l72.75,23.96s9.18-5.25,17.71-17.15l-118.75-39.56Z"/>
      <path class="uuid-51f4f21f-e0f2-45f4-9844-61f87a687811" d="m3475.2,4535.14l89.9,29.7c1.44.52,2.95.86,4.38,1.17,1.06.25,2.08.39,3.18.55,4.27.52,8.5.42,12.6-.25,1.04-.16,2.12-.4,3.12-.68,3.56-.79,6.94-2.07,10.05-3.87,1.23-.58,2.29-1.24,3.35-1.9,1.85-1.13,3.57-2.41,5.16-3.85l-114.03-38.04c-8.53,11.9-17.71,17.15-17.71,17.15Z"/>
    </g>
    <g>
      <g>
        <path class="uuid-a10e3299-ccfe-4f1a-a402-89bfc9817866" d="m3615.5,4684.7c-.48,1.11-.91,2.34-1.3,3.48-2.61,7.67-3.02,15.68-1.52,23.09,2.88,14.88,13.24,27.81,28.29,32.76l162.65,53.66c14.8,4.84,30.6,1.01,41.84-8.82,5.1-4.38,9.22-9.88,12-16.37.51-1.19.94-2.42,1.37-3.65,7.82-23.22-4.21-48.39-26.68-55.82l-162.74-53.7c-21.49-7-44.87,4.28-53.92,25.36Z"/>
        <path class="uuid-4c522bc8-0064-4965-8038-460afe83e72c" d="m3731.42,4750.83c-8.53,11.9-17.71,17.15-17.71,17.15l89.9,29.7c1.44.52,2.95.86,4.38,1.17,1.06.25,2.08.39,3.18.55,4.27.52,8.5.42,12.6-.25,1.04-.16,2.09-.32,3.12-.68,3.56-.79,6.94-2.07,10.05-3.87,1.23-.58,2.29-1.24,3.35-1.9,1.85-1.13,3.57-2.41,5.16-3.85,5.1-4.38,9.22-9.88,12-16.37.51-1.19.94-2.42,1.37-3.65,7.82-23.22-4.21-48.39-26.68-55.82l-83.58-27.6s1.81,19.87-7.59,46.76c-2.62,7.46-6.06,13.67-9.56,18.63Z"/>
      </g>
      <path class="uuid-792e030f-c76c-4366-ad77-5d2c3dcc7066" d="m3612.68,4711.27c2.88,14.88,13.24,27.81,28.29,32.76l72.75,23.96s9.18-5.25,17.71-17.15l-118.75-39.56Z"/>
      <path class="uuid-51f4f21f-e0f2-45f4-9844-61f87a687811" d="m3713.71,4767.99l89.9,29.7c1.44.52,2.95.86,4.38,1.17,1.06.25,2.08.39,3.18.55,4.27.52,8.5.42,12.6-.25,1.04-.16,2.12-.4,3.12-.68,3.56-.79,6.94-2.07,10.05-3.87,1.23-.58,2.29-1.24,3.35-1.9,1.85-1.13,3.57-2.41,5.16-3.85l-114.03-38.04c-8.53,11.9-17.71,17.15-17.71,17.15Z"/>
    </g>
    <g>
      <g>
        <path class="uuid-a10e3299-ccfe-4f1a-a402-89bfc9817866" d="m3320.81,4582.68c-.48,1.11-.91,2.34-1.3,3.48-2.61,7.67-3.02,15.68-1.52,23.09,2.88,14.88,13.24,27.81,28.29,32.76l162.65,53.66c14.8,4.84,30.6,1.01,41.84-8.82,5.1-4.38,9.22-9.88,12-16.37.51-1.19.94-2.42,1.37-3.65,7.82-23.22-4.21-48.39-26.68-55.82l-162.74-53.7c-21.49-7-44.87,4.28-53.92,25.36Z"/>
        <path class="uuid-4c522bc8-0064-4965-8038-460afe83e72c" d="m3436.73,4648.82c-8.53,11.9-17.71,17.15-17.71,17.15l89.9,29.7c1.44.52,2.95.86,4.38,1.17,1.06.25,2.08.39,3.18.55,4.27.52,8.5.42,12.6-.25,1.04-.16,2.09-.32,3.12-.68,3.56-.79,6.94-2.07,10.05-3.87,1.23-.58,2.29-1.24,3.35-1.9,1.85-1.13,3.57-2.41,5.16-3.85,5.1-4.38,9.22-9.88,12-16.37.51-1.19.94-2.42,1.37-3.65,7.82-23.22-4.21-48.39-26.68-55.82l-83.58-27.6s1.81,19.87-7.59,46.76c-2.62,7.46-6.06,13.67-9.56,18.63Z"/>
      </g>
      <path class="uuid-792e030f-c76c-4366-ad77-5d2c3dcc7066" d="m3317.99,4609.26c2.88,14.88,13.24,27.81,28.29,32.76l72.75,23.96s9.18-5.25,17.71-17.15l-118.75-39.56Z"/>
      <path class="uuid-51f4f21f-e0f2-45f4-9844-61f87a687811" d="m3419.03,4665.98l89.9,29.7c1.44.52,2.95.86,4.38,1.17,1.06.25,2.08.39,3.18.55,4.27.52,8.5.42,12.6-.25,1.04-.16,2.12-.4,3.12-.68,3.56-.79,6.94-2.07,10.05-3.87,1.23-.58,2.29-1.24,3.35-1.9,1.85-1.13,3.57-2.41,5.16-3.85l-114.03-38.04c-8.53,11.9-17.71,17.15-17.71,17.15Z"/>
    </g>
    <g>
      <g>
        <path class="uuid-a10e3299-ccfe-4f1a-a402-89bfc9817866" d="m3569.29,4802.78c-.48,1.11-.91,2.34-1.3,3.48-2.61,7.67-3.02,15.68-1.52,23.09,2.88,14.88,13.24,27.81,28.29,32.76l162.65,53.66c14.8,4.84,30.6,1.01,41.84-8.82,5.1-4.38,9.22-9.88,12-16.37.51-1.19.94-2.42,1.37-3.65,7.82-23.22-4.21-48.39-26.68-55.82l-162.74-53.7c-21.49-7-44.87,4.28-53.92,25.36Z"/>
        <path class="uuid-4c522bc8-0064-4965-8038-460afe83e72c" d="m3685.22,4868.92c-8.53,11.9-17.71,17.15-17.71,17.15l89.9,29.7c1.44.52,2.95.86,4.38,1.17,1.06.25,2.08.39,3.18.55,4.27.52,8.5.42,12.6-.25,1.04-.16,2.09-.32,3.12-.68,3.56-.79,6.94-2.07,10.05-3.87,1.23-.58,2.29-1.24,3.35-1.9,1.85-1.13,3.57-2.41,5.16-3.85,5.1-4.38,9.22-9.88,12-16.37.51-1.19.94-2.42,1.37-3.65,7.82-23.22-4.21-48.39-26.68-55.82l-83.58-27.6s1.81,19.87-7.59,46.76c-2.62,7.46-6.06,13.67-9.56,18.63Z"/>
      </g>
      <path class="uuid-792e030f-c76c-4366-ad77-5d2c3dcc7066" d="m3566.47,4829.35c2.88,14.88,13.24,27.81,28.29,32.76l72.75,23.96s9.18-5.25,17.71-17.15l-118.75-39.56Z"/>
      <path class="uuid-51f4f21f-e0f2-45f4-9844-61f87a687811" d="m3667.51,4886.07l89.9,29.7c1.44.52,2.95.86,4.38,1.17,1.06.25,2.08.39,3.18.55,4.27.52,8.5.42,12.6-.25,1.04-.16,2.12-.4,3.12-.68,3.56-.79,6.94-2.07,10.05-3.87,1.23-.58,2.29-1.24,3.35-1.9,1.85-1.13,3.57-2.41,5.16-3.85l-114.03-38.04c-8.53,11.9-17.71,17.15-17.71,17.15Z"/>
    </g>
    <g>
      <g>
        <path class="uuid-a10e3299-ccfe-4f1a-a402-89bfc9817866" d="m3274.6,4700.77c-.48,1.11-.91,2.34-1.3,3.48-2.61,7.67-3.02,15.68-1.52,23.09,2.88,14.88,13.24,27.81,28.29,32.76l162.65,53.66c14.8,4.84,30.6,1.01,41.84-8.82,5.1-4.38,9.22-9.88,12-16.37.51-1.19.94-2.42,1.37-3.65,7.82-23.22-4.21-48.39-26.68-55.82l-162.74-53.7c-21.49-7-44.87,4.28-53.92,25.36Z"/>
        <path class="uuid-4c522bc8-0064-4965-8038-460afe83e72c" d="m3390.53,4766.9c-8.53,11.9-17.71,17.15-17.71,17.15l89.9,29.7c1.44.52,2.95.86,4.38,1.17,1.06.25,2.08.39,3.18.55,4.27.52,8.5.42,12.6-.25,1.04-.16,2.09-.32,3.12-.68,3.56-.8,6.94-2.07,10.05-3.87,1.23-.58,2.29-1.24,3.35-1.9,1.85-1.13,3.57-2.41,5.16-3.85,5.1-4.38,9.22-9.88,12-16.37.51-1.19.94-2.42,1.37-3.65,7.82-23.22-4.21-48.39-26.68-55.82l-83.58-27.6s1.81,19.87-7.59,46.76c-2.62,7.46-6.06,13.67-9.56,18.63Z"/>
      </g>
      <path class="uuid-792e030f-c76c-4366-ad77-5d2c3dcc7066" d="m3271.78,4727.34c2.88,14.88,13.24,27.81,28.29,32.76l72.75,23.96s9.18-5.25,17.71-17.15l-118.75-39.56Z"/>
      <path class="uuid-51f4f21f-e0f2-45f4-9844-61f87a687811" d="m3372.82,4784.06l89.9,29.7c1.44.52,2.95.86,4.38,1.17,1.06.25,2.08.39,3.18.55,4.27.52,8.5.42,12.6-.25,1.04-.16,2.12-.4,3.12-.68,3.56-.8,6.94-2.07,10.05-3.87,1.23-.58,2.29-1.24,3.35-1.9,1.85-1.13,3.57-2.41,5.16-3.85l-114.03-38.04c-8.53,11.9-17.71,17.15-17.71,17.15Z"/>
    </g>
  </g>
  <g>
    <path class="uuid-c16ebf00-c631-4cf8-bd59-33386040444f" d="m3416.18,4790.9l-10.9,2.62-668.82,179.04-167.16-562.93c-7.14-24.03,7-49.2,31.23-55.62l582.36-154.31c22.89-6.07,46.52,6.88,53.73,29.43l179.57,561.77Z"/>
    <g>
      <g>
        <path class="uuid-eb7fdaaa-4ee9-4917-a1a7-54f86d01861a" d="m2893.09,4407.12c.44,1.2.82,2.53,1.17,3.77,2.29,8.29,2.16,16.84-.01,24.66-4.23,15.71-16.48,29-33.28,33.56l-181.57,49.55c-16.52,4.46-33.5-.35-45.07-11.34-5.25-4.9-9.35-10.96-11.92-17.99-.47-1.3-.85-2.63-1.24-3.96-6.86-25.09,8.11-51.33,33.2-58.19l181.66-49.58c23.98-6.45,48.7,6.65,57.06,29.52Z"/>
        <path class="uuid-4c522bc8-0064-4965-8038-460afe83e72c" d="m2761.66,4472.14c8.45,13.07,18.1,19.09,18.1,19.09l-100.36,27.43c-1.61.48-3.28.78-4.87,1.04-1.18.22-2.3.31-3.51.44-4.7.35-9.32.05-13.74-.85-1.13-.22-2.26-.43-3.36-.87-3.83-1.01-7.43-2.53-10.7-4.59-1.3-.68-2.41-1.43-3.52-2.18-1.94-1.28-3.73-2.73-5.36-4.34-5.25-4.9-9.35-10.96-11.92-17.99-.47-1.3-.85-2.63-1.24-3.96-6.86-25.09,8.11-51.33,33.2-58.19l93.31-25.49s-3.42,21.08,4.89,50.15c2.32,8.07,5.63,14.84,9.09,20.29Z"/>
      </g>
      <path class="uuid-0d6bdab3-090a-46a1-b5fc-c605e2eada1c" d="m2894.24,4435.56c-4.23,15.71-16.48,29-33.28,33.56l-81.21,22.12s-9.65-6.02-18.1-19.09l132.59-36.58Z"/>
      <path class="uuid-51f4f21f-e0f2-45f4-9844-61f87a687811" d="m2779.75,4491.24l-100.36,27.43c-1.61.48-3.28.78-4.87,1.04-1.18.22-2.3.31-3.51.44-4.7.35-9.32.05-13.74-.85-1.13-.22-2.29-.53-3.36-.87-3.83-1.01-7.43-2.53-10.7-4.59-1.3-.68-2.41-1.43-3.52-2.18-1.94-1.28-3.73-2.73-5.36-4.34l127.33-35.19c8.45,13.07,18.1,19.09,18.1,19.09Z"/>
    </g>
    <g>
      <g>
        <path class="uuid-eb7fdaaa-4ee9-4917-a1a7-54f86d01861a" d="m3224.71,4318.59c.44,1.2.82,2.53,1.17,3.77,2.29,8.29,2.16,16.84-.01,24.66-4.23,15.71-16.48,29-33.28,33.56l-181.57,49.55c-16.52,4.46-33.5-.35-45.07-11.34-5.25-4.9-9.35-10.96-11.92-17.99-.47-1.3-.85-2.63-1.24-3.96-6.86-25.09,8.11-51.33,33.2-58.19l181.66-49.58c23.98-6.45,48.7,6.65,57.06,29.52Z"/>
        <path class="uuid-4c522bc8-0064-4965-8038-460afe83e72c" d="m3093.28,4383.61c8.45,13.07,18.1,19.09,18.1,19.09l-100.36,27.43c-1.61.48-3.28.78-4.87,1.04-1.18.22-2.3.31-3.51.44-4.7.35-9.32.05-13.74-.85-1.13-.22-2.26-.43-3.36-.87-3.83-1.01-7.43-2.53-10.7-4.59-1.3-.68-2.41-1.43-3.52-2.17-1.94-1.28-3.73-2.73-5.36-4.34-5.25-4.9-9.35-10.96-11.92-17.99-.47-1.3-.85-2.63-1.24-3.96-6.86-25.09,8.11-51.33,33.2-58.19l93.31-25.49s-3.42,21.08,4.89,50.15c2.32,8.07,5.63,14.84,9.09,20.29Z"/>
      </g>
      <path class="uuid-0d6bdab3-090a-46a1-b5fc-c605e2eada1c" d="m3225.87,4347.02c-4.23,15.71-16.48,29-33.28,33.56l-81.21,22.12s-9.65-6.02-18.1-19.09l132.59-36.58Z"/>
      <path class="uuid-51f4f21f-e0f2-45f4-9844-61f87a687811" d="m3111.38,4402.7l-100.36,27.43c-1.61.48-3.28.78-4.87,1.04-1.18.22-2.3.31-3.51.44-4.7.35-9.32.05-13.74-.85-1.13-.22-2.29-.53-3.36-.87-3.83-1.01-7.43-2.53-10.7-4.59-1.3-.68-2.41-1.43-3.52-2.17-1.94-1.28-3.73-2.73-5.36-4.34l127.33-35.19c8.45,13.07,18.1,19.09,18.1,19.09Z"/>
    </g>
    <g>
      <g>
        <path class="uuid-eb7fdaaa-4ee9-4917-a1a7-54f86d01861a" d="m2942.88,4543.41c.44,1.2.82,2.53,1.17,3.77,2.29,8.29,2.16,16.84-.01,24.66-4.23,15.71-16.48,29-33.28,33.56l-181.57,49.55c-16.52,4.46-33.5-.35-45.07-11.34-5.25-4.9-9.35-10.96-11.92-17.99-.47-1.3-.85-2.63-1.24-3.96-6.86-25.09,8.11-51.33,33.2-58.19l181.66-49.58c23.98-6.45,48.7,6.65,57.06,29.52Z"/>
        <path class="uuid-4c522bc8-0064-4965-8038-460afe83e72c" d="m2811.45,4608.42c8.45,13.07,18.1,19.09,18.1,19.09l-100.36,27.43c-1.61.48-3.28.78-4.87,1.04-1.18.22-2.3.31-3.51.44-4.7.35-9.32.05-13.74-.85-1.13-.22-2.26-.43-3.36-.87-3.83-1.01-7.43-2.53-10.7-4.59-1.3-.68-2.41-1.43-3.52-2.18-1.94-1.28-3.73-2.73-5.36-4.34-5.25-4.9-9.35-10.96-11.92-17.99-.47-1.3-.85-2.63-1.24-3.96-6.86-25.09,8.11-51.33,33.2-58.19l93.31-25.49s-3.42,21.08,4.89,50.15c2.32,8.07,5.63,14.84,9.09,20.29Z"/>
      </g>
      <path class="uuid-0d6bdab3-090a-46a1-b5fc-c605e2eada1c" d="m2944.03,4571.84c-4.23,15.71-16.48,29-33.28,33.56l-81.21,22.12s-9.65-6.02-18.1-19.09l132.59-36.58Z"/>
      <path class="uuid-51f4f21f-e0f2-45f4-9844-61f87a687811" d="m2829.55,4627.52l-100.36,27.43c-1.61.48-3.28.78-4.87,1.04-1.18.22-2.3.31-3.51.44-4.7.35-9.32.05-13.74-.85-1.13-.22-2.29-.53-3.36-.87-3.83-1.01-7.43-2.53-10.7-4.59-1.3-.68-2.41-1.43-3.52-2.18-1.94-1.28-3.73-2.73-5.36-4.34l127.33-35.19c8.45,13.07,18.1,19.09,18.1,19.09Z"/>
    </g>
    <g>
      <g>
        <path class="uuid-eb7fdaaa-4ee9-4917-a1a7-54f86d01861a" d="m3270.25,4456.43c.44,1.2.82,2.53,1.17,3.77,2.29,8.29,2.16,16.84-.01,24.66-4.23,15.71-16.48,29-33.28,33.56l-181.57,49.55c-16.52,4.46-33.5-.35-45.07-11.34-5.25-4.9-9.35-10.96-11.92-17.99-.47-1.3-.85-2.63-1.24-3.96-6.86-25.09,8.11-51.33,33.2-58.19l181.66-49.58c23.98-6.45,48.7,6.65,57.06,29.52Z"/>
        <path class="uuid-4c522bc8-0064-4965-8038-460afe83e72c" d="m3138.82,4521.45c8.45,13.07,18.1,19.09,18.1,19.09l-100.36,27.43c-1.61.48-3.28.78-4.87,1.04-1.18.22-2.3.31-3.51.44-4.7.35-9.32.05-13.74-.85-1.13-.22-2.26-.43-3.36-.87-3.83-1.01-7.43-2.53-10.7-4.59-1.3-.68-2.41-1.43-3.52-2.17-1.94-1.28-3.73-2.73-5.36-4.34-5.25-4.9-9.35-10.96-11.92-17.99-.47-1.3-.85-2.63-1.24-3.96-6.86-25.09,8.11-51.33,33.2-58.19l93.31-25.49s-3.42,21.08,4.89,50.15c2.32,8.07,5.63,14.84,9.09,20.29Z"/>
      </g>
      <path class="uuid-0d6bdab3-090a-46a1-b5fc-c605e2eada1c" d="m3271.4,4484.86c-4.23,15.71-16.48,29-33.28,33.56l-81.21,22.12s-9.65-6.02-18.1-19.09l132.59-36.58Z"/>
      <path class="uuid-51f4f21f-e0f2-45f4-9844-61f87a687811" d="m3156.91,4540.54l-100.36,27.43c-1.61.48-3.28.78-4.87,1.04-1.18.22-2.3.31-3.51.44-4.7.35-9.32.05-13.74-.85-1.13-.22-2.29-.53-3.36-.87-3.83-1.01-7.43-2.53-10.7-4.59-1.3-.68-2.41-1.43-3.52-2.17-1.94-1.28-3.73-2.73-5.36-4.34l127.33-35.19c8.45,13.07,18.1,19.09,18.1,19.09Z"/>
    </g>
    <g>
      <g>
        <path class="uuid-eb7fdaaa-4ee9-4917-a1a7-54f86d01861a" d="m2992.8,4693.25c.44,1.2.82,2.53,1.17,3.77,2.29,8.29,2.16,16.84-.01,24.66-4.23,15.71-16.48,29-33.28,33.56l-181.57,49.55c-16.52,4.46-33.5-.35-45.07-11.34-5.25-4.9-9.35-10.96-11.92-17.99-.47-1.3-.85-2.63-1.24-3.96-6.86-25.09,8.11-51.33,33.2-58.19l181.66-49.58c23.98-6.45,48.7,6.65,57.06,29.52Z"/>
        <path class="uuid-4c522bc8-0064-4965-8038-460afe83e72c" d="m2861.37,4758.27c8.45,13.07,18.1,19.09,18.1,19.09l-100.36,27.43c-1.61.48-3.28.78-4.87,1.04-1.18.22-2.3.31-3.51.44-4.7.35-9.32.05-13.74-.85-1.13-.22-2.26-.43-3.36-.87-3.83-1.01-7.43-2.53-10.7-4.59-1.3-.68-2.41-1.43-3.52-2.17-1.94-1.28-3.73-2.73-5.36-4.34-5.25-4.9-9.35-10.96-11.92-17.99-.47-1.3-.85-2.63-1.24-3.96-6.86-25.09,8.11-51.33,33.2-58.19l93.31-25.49s-3.42,21.08,4.89,50.15c2.32,8.07,5.63,14.84,9.09,20.29Z"/>
      </g>
      <path class="uuid-0d6bdab3-090a-46a1-b5fc-c605e2eada1c" d="m2993.95,4721.68c-4.23,15.71-16.48,29-33.28,33.56l-81.21,22.12s-9.65-6.02-18.1-19.09l132.59-36.58Z"/>
      <path class="uuid-51f4f21f-e0f2-45f4-9844-61f87a687811" d="m2879.47,4777.36l-100.36,27.43c-1.61.48-3.28.78-4.87,1.04-1.18.22-2.3.31-3.51.44-4.7.35-9.32.05-13.74-.85-1.13-.22-2.29-.53-3.36-.87-3.83-1.01-7.43-2.53-10.7-4.59-1.3-.68-2.41-1.43-3.52-2.17-1.94-1.28-3.73-2.73-5.36-4.34l127.33-35.19c8.45,13.07,18.1,19.09,18.1,19.09Z"/>
    </g>
    <g>
      <g>
        <path class="uuid-eb7fdaaa-4ee9-4917-a1a7-54f86d01861a" d="m3322.11,4598.38c.44,1.2.82,2.53,1.17,3.77,2.29,8.29,2.16,16.84-.01,24.66-4.23,15.71-16.48,29-33.28,33.56l-181.57,49.55c-16.52,4.46-33.5-.35-45.07-11.34-5.25-4.9-9.35-10.96-11.92-17.99-.47-1.3-.85-2.63-1.24-3.96-6.86-25.09,8.11-51.33,33.2-58.19l181.66-49.58c23.98-6.45,48.7,6.65,57.06,29.52Z"/>
        <path class="uuid-4c522bc8-0064-4965-8038-460afe83e72c" d="m3190.68,4663.39c8.45,13.07,18.1,19.09,18.1,19.09l-100.36,27.43c-1.61.48-3.28.78-4.87,1.04-1.18.22-2.3.31-3.51.44-4.7.35-9.32.05-13.74-.85-1.13-.22-2.26-.43-3.36-.87-3.83-1.01-7.43-2.53-10.7-4.59-1.3-.68-2.41-1.43-3.52-2.17-1.94-1.28-3.73-2.73-5.36-4.34-5.25-4.9-9.35-10.96-11.92-17.99-.47-1.3-.85-2.63-1.24-3.96-6.86-25.09,8.11-51.33,33.2-58.19l93.31-25.49s-3.42,21.08,4.89,50.15c2.32,8.07,5.63,14.84,9.09,20.29Z"/>
      </g>
      <path class="uuid-0d6bdab3-090a-46a1-b5fc-c605e2eada1c" d="m3323.26,4626.81c-4.23,15.71-16.48,29-33.28,33.56l-81.21,22.12s-9.65-6.02-18.1-19.09l132.59-36.58Z"/>
      <path class="uuid-51f4f21f-e0f2-45f4-9844-61f87a687811" d="m3208.78,4682.49l-100.36,27.43c-1.61.48-3.28.78-4.87,1.04-1.18.22-2.3.31-3.51.44-4.7.35-9.32.05-13.74-.85-1.13-.22-2.29-.53-3.36-.87-3.83-1.01-7.43-2.53-10.7-4.59-1.3-.68-2.41-1.43-3.52-2.17-1.94-1.28-3.73-2.73-5.36-4.34l127.33-35.19c8.45,13.07,18.1,19.09,18.1,19.09Z"/>
    </g>
    <g>
      <g>
        <path class="uuid-eb7fdaaa-4ee9-4917-a1a7-54f86d01861a" d="m3034.7,4821.15c.44,1.2.82,2.53,1.17,3.77,2.29,8.29,2.16,16.84-.01,24.66-4.23,15.71-16.48,29-33.28,33.56l-181.57,49.55c-16.52,4.46-33.5-.35-45.07-11.34-5.25-4.9-9.35-10.96-11.92-17.99-.47-1.3-.85-2.63-1.24-3.96-6.86-25.09,8.11-51.33,33.2-58.19l181.66-49.58c23.98-6.45,48.7,6.65,57.06,29.52Z"/>
        <path class="uuid-4c522bc8-0064-4965-8038-460afe83e72c" d="m2903.27,4886.17c8.45,13.07,18.1,19.09,18.1,19.09l-100.36,27.43c-1.61.48-3.28.78-4.87,1.04-1.18.22-2.3.31-3.51.44-4.7.35-9.32.05-13.74-.85-1.13-.22-2.26-.43-3.36-.87-3.83-1.01-7.43-2.53-10.7-4.59-1.3-.68-2.41-1.43-3.52-2.17-1.94-1.28-3.73-2.73-5.36-4.34-5.25-4.9-9.35-10.96-11.92-17.99-.47-1.3-.85-2.63-1.24-3.96-6.86-25.09,8.11-51.33,33.2-58.19l93.31-25.49s-3.42,21.08,4.89,50.15c2.32,8.07,5.63,14.84,9.09,20.29Z"/>
      </g>
      <path class="uuid-0d6bdab3-090a-46a1-b5fc-c605e2eada1c" d="m3035.86,4849.58c-4.23,15.71-16.48,29-33.28,33.56l-81.21,22.12s-9.65-6.02-18.1-19.09l132.59-36.58Z"/>
      <path class="uuid-51f4f21f-e0f2-45f4-9844-61f87a687811" d="m2921.37,4905.26l-100.36,27.43c-1.61.48-3.28.78-4.87,1.04-1.18.22-2.3.31-3.51.44-4.7.35-9.32.05-13.74-.85-1.13-.22-2.29-.53-3.36-.87-3.83-1.01-7.43-2.53-10.7-4.59-1.3-.68-2.41-1.43-3.52-2.17-1.94-1.28-3.73-2.73-5.36-4.34l127.33-35.19c8.45,13.07,18.1,19.09,18.1,19.09Z"/>
    </g>
    <g>
      <g>
        <path class="uuid-eb7fdaaa-4ee9-4917-a1a7-54f86d01861a" d="m3364.01,4726.28c.44,1.2.82,2.53,1.17,3.77,2.29,8.29,2.16,16.84-.01,24.66-4.23,15.71-16.48,29-33.28,33.56l-181.57,49.55c-16.52,4.46-33.5-.35-45.07-11.34-5.25-4.9-9.35-10.96-11.92-17.99-.47-1.3-.85-2.63-1.24-3.96-6.86-25.09,8.11-51.33,33.2-58.19l181.66-49.58c23.98-6.45,48.7,6.65,57.06,29.52Z"/>
        <path class="uuid-4c522bc8-0064-4965-8038-460afe83e72c" d="m3232.58,4791.29c8.45,13.07,18.1,19.09,18.1,19.09l-100.36,27.43c-1.61.48-3.28.78-4.87,1.04-1.18.22-2.3.31-3.51.44-4.7.35-9.32.05-13.74-.85-1.13-.22-2.26-.43-3.36-.87-3.83-1.01-7.43-2.53-10.7-4.59-1.3-.68-2.41-1.43-3.52-2.18-1.94-1.28-3.73-2.73-5.36-4.34-5.25-4.9-9.35-10.96-11.92-17.99-.47-1.3-.85-2.63-1.24-3.96-6.86-25.09,8.11-51.33,33.2-58.19l93.31-25.49s-3.42,21.08,4.89,50.15c2.32,8.07,5.63,14.84,9.09,20.29Z"/>
      </g>
      <path class="uuid-0d6bdab3-090a-46a1-b5fc-c605e2eada1c" d="m3365.17,4754.71c-4.23,15.71-16.48,29-33.28,33.56l-81.21,22.12s-9.65-6.02-18.1-19.09l132.59-36.58Z"/>
      <path class="uuid-51f4f21f-e0f2-45f4-9844-61f87a687811" d="m3250.68,4810.39l-100.36,27.43c-1.61.48-3.28.78-4.87,1.04-1.18.22-2.3.31-3.51.44-4.7.35-9.32.05-13.74-.85-1.13-.22-2.29-.53-3.36-.87-3.83-1.01-7.43-2.53-10.7-4.59-1.3-.68-2.41-1.43-3.52-2.18-1.94-1.28-3.73-2.73-5.36-4.34l127.33-35.19c8.45,13.07,18.1,19.09,18.1,19.09Z"/>
    </g>
  </g>
  <g>
    <g>
      <g>
        <path class="uuid-b7316ac9-a56f-4dd7-b9c0-40f068b81ee8" d="m2111.51,4968.19l10.11.04,629.86-60.11,34.58-528.64c1.48-22.57-15.98-41.73-38.57-42.34l-543.02-14.7c-21.34-.58-39.54,15.68-41.37,36.97l-51.59,608.78Z"/>
        <ellipse class="uuid-5a55e82f-d00f-4240-a851-8a003ff0481e" cx="2608.75" cy="4497.54" rx="110.52" ry="109.57" transform="translate(-2396.66 3090.67) rotate(-44.19)"/>
        <ellipse class="uuid-5a55e82f-d00f-4240-a851-8a003ff0481e" cx="2306.4" cy="4499.49" rx="110.52" ry="109.57" transform="translate(-2483.63 2880.69) rotate(-44.19)"/>
        <ellipse class="uuid-5a55e82f-d00f-4240-a851-8a003ff0481e" cx="2590.39" cy="4765.95" rx="110.52" ry="109.57" transform="translate(-2589 3154.03) rotate(-44.19)"/>
        <ellipse class="uuid-5a55e82f-d00f-4240-a851-8a003ff0481e" cx="2287.41" cy="4752.26" rx="110.52" ry="109.57" transform="translate(-2665.16 2938.9) rotate(-44.19)"/>
        <ellipse class="uuid-18fb4469-f692-46de-9778-32bb482db4f0" cx="2619.12" cy="4482.92" rx="110.52" ry="109.57" transform="translate(-2383.54 3093.76) rotate(-44.19)"/>
        <ellipse class="uuid-18fb4469-f692-46de-9778-32bb482db4f0" cx="2316.77" cy="4484.87" rx="110.52" ry="109.57" transform="translate(-2470.49 2883.75) rotate(-44.19)"/>
        <ellipse class="uuid-18fb4469-f692-46de-9778-32bb482db4f0" cx="2600.76" cy="4751.33" rx="110.52" ry="109.57" transform="translate(-2575.82 3156.95) rotate(-44.19)"/>
        <ellipse class="uuid-18fb4469-f692-46de-9778-32bb482db4f0" cx="2297.78" cy="4737.64" rx="110.52" ry="109.57" transform="translate(-2651.99 2941.88) rotate(-44.19)"/>
        <g>
          <path class="uuid-d4049c95-5f7b-4e95-8dfa-a142dd9843c6" d="m2539.08,4478.03c-4.61,45.43,28.49,85.71,73.89,89.93,16.32,1.52,32.03-1.78,45.62-8.82,24.3-12.49,42.07-36.67,45.03-65.82,4.62-45.49-28.48-85.77-73.94-89.99-38.33-3.56-73.18,19.67-85.92,54.36,0,0,0,.06-.07.11-2.33,6.4-3.89,13.16-4.61,20.24Z"/>
          <path class="uuid-2a7a0ace-1d72-4487-81cb-f5f80e6877d8" d="m2539.08,4478.03c-4.61,45.43,28.49,85.71,73.89,89.93,16.32,1.52,32.03-1.78,45.62-8.82-113.15-9.99-114.83-101.45-114.83-101.45,0,0,0,.06-.07.11-2.33,6.4-3.89,13.16-4.61,20.24Z"/>
        </g>
        <g>
          <path class="uuid-d4049c95-5f7b-4e95-8dfa-a142dd9843c6" d="m2234.5,4477.25c-4.61,45.43,28.49,85.71,73.89,89.93,16.32,1.52,32.03-1.78,45.62-8.82,24.3-12.49,42.07-36.67,45.03-65.82,4.62-45.49-28.48-85.77-73.94-89.99-38.33-3.56-73.18,19.67-85.92,54.36,0,0,0,.06-.07.11-2.33,6.4-3.89,13.16-4.61,20.24Z"/>
          <path class="uuid-2a7a0ace-1d72-4487-81cb-f5f80e6877d8" d="m2234.5,4477.25c-4.61,45.43,28.49,85.71,73.89,89.93,16.32,1.52,32.03-1.78,45.62-8.82-113.15-9.99-114.83-101.45-114.83-101.45,0,0,0,.06-.07.11-2.33,6.4-3.89,13.16-4.61,20.24Z"/>
        </g>
        <g>
          <path class="uuid-d4049c95-5f7b-4e95-8dfa-a142dd9843c6" d="m2518.49,4743.72c-4.61,45.43,28.49,85.71,73.89,89.93,16.32,1.52,32.03-1.78,45.62-8.82,24.3-12.49,42.07-36.67,45.03-65.82,4.62-45.49-28.48-85.77-73.94-89.99-38.33-3.56-73.18,19.67-85.92,54.36,0,0,0,.06-.07.11-2.33,6.4-3.89,13.16-4.61,20.24Z"/>
          <path class="uuid-2a7a0ace-1d72-4487-81cb-f5f80e6877d8" d="m2518.49,4743.72c-4.61,45.43,28.49,85.71,73.89,89.93,16.32,1.52,32.03-1.78,45.62-8.82-113.15-9.99-114.83-101.45-114.83-101.45,0,0,0,.06-.07.11-2.33,6.4-3.89,13.16-4.61,20.24Z"/>
        </g>
        <g>
          <path class="uuid-d4049c95-5f7b-4e95-8dfa-a142dd9843c6" d="m2215.4,4731.15c-4.61,45.43,28.49,85.71,73.89,89.93,16.32,1.52,32.03-1.78,45.62-8.82,24.3-12.49,42.07-36.67,45.03-65.82,4.62-45.49-28.48-85.77-73.94-89.99-38.33-3.56-73.18,19.67-85.92,54.36,0,0,0,.06-.07.11-2.33,6.4-3.89,13.16-4.61,20.24Z"/>
          <path class="uuid-2a7a0ace-1d72-4487-81cb-f5f80e6877d8" d="m2215.4,4731.15c-4.61,45.43,28.49,85.71,73.89,89.93,16.32,1.52,32.03-1.78,45.62-8.82-113.15-9.99-114.83-101.45-114.83-101.45,0,0,0,.06-.07.11-2.33,6.4-3.89,13.16-4.61,20.24Z"/>
        </g>
      </g>
      <path class="uuid-7ba1c4ed-d307-4676-8a35-956cd15fa6b8" d="m2317.03,4413.95c9.75,1.61,33.25.56,56.44,32.29,21.58,29.53,5.05,60.06,1.11,43.05-5.24-22.61-28.09-54.88-63.57-61.58-35.49-6.7,1.92-14.44,6.03-13.76Z"/>
      <path class="uuid-7ba1c4ed-d307-4676-8a35-956cd15fa6b8" d="m2622.56,4416.98c9.75,1.61,33.25.56,56.44,32.29,21.58,29.53,5.05,60.06,1.11,43.05-5.24-22.61-28.09-54.88-63.57-61.58s1.92-14.44,6.03-13.76Z"/>
      <path class="uuid-7ba1c4ed-d307-4676-8a35-956cd15fa6b8" d="m2294.05,4668.97c9.75,1.61,33.25.56,56.44,32.29,21.58,29.53,5.05,60.06,1.11,43.05-5.24-22.61-28.09-54.88-63.57-61.58s1.92-14.44,6.03-13.76Z"/>
      <path class="uuid-7ba1c4ed-d307-4676-8a35-956cd15fa6b8" d="m2598.46,4685.84c9.75,1.61,33.25.56,56.44,32.29,21.58,29.53,5.05,60.06,1.11,43.05-5.24-22.61-28.09-54.88-63.57-61.58-35.49-6.7,1.92-14.44,6.03-13.76Z"/>
    </g>
    <path class="uuid-95e5f629-e61e-4f56-b89e-0805f9ba19a4" d="m2389.17,4766.77c18.82-47.65-4.44-101.24-51.94-119.65-17.08-6.62-34.96-7.85-51.72-4.39,141.49,16.7,92.42,144.59,92.42,144.59,0,0,.02-.06.11-.1,4.46-6.2,8.2-13.03,11.13-20.45Z"/>
    <path class="uuid-95e5f629-e61e-4f56-b89e-0805f9ba19a4" d="m2692.11,4780.01c18.82-47.65-4.44-101.24-51.94-119.65-17.08-6.62-34.96-7.85-51.72-4.39,141.49,16.7,92.42,144.59,92.42,144.59,0,0,.02-.06.11-.1,4.46-6.2,8.2-13.03,11.13-20.45Z"/>
    <path class="uuid-95e5f629-e61e-4f56-b89e-0805f9ba19a4" d="m2710.19,4513.56c18.82-47.65-4.44-101.24-51.94-119.65-17.08-6.62-34.96-7.85-51.72-4.39,141.49,16.7,92.42,144.59,92.42,144.59,0,0,.02-.06.11-.1,4.46-6.2,8.2-13.03,11.13-20.45Z"/>
    <path class="uuid-95e5f629-e61e-4f56-b89e-0805f9ba19a4" d="m2408.19,4514.22c18.82-47.65-4.44-101.24-51.94-119.65-17.08-6.62-34.96-7.85-51.72-4.39,141.49,16.7,92.42,144.59,92.42,144.59,0,0,.02-.06.11-.1,4.46-6.2,8.2-13.03,11.13-20.45Z"/>
  </g>
  <g>
    <path class="uuid-b658ff95-576f-4dc4-b5c5-fe8b4e272569" d="m0,2083.05s564.45,274.84,507.08,910.55c-57.37,635.71-181.67,1016.26,95.61,1194.1,277.28,177.84,659.74,118.13,793.6,387.02,133.86,268.89,621.49,383.63,879.65,288.01,258.16-95.61,879.65-191.23,1204.74-114.74,325.09,76.49,420.25,252,420.25,252H0v-2916.95Z"/>
    <path class="uuid-eb7fdaaa-4ee9-4917-a1a7-54f86d01861a" d="m449.37,4328.15h-36.8c-6.67,0-12.08-5.99-12.08-13.38v-40.77c0-7.39-5.41-13.38-12.08-13.38h-6.65c-6.67,0-12.08,5.99-12.08,13.38v40.77c0,7.39-5.41,13.38-12.08,13.38h-37.13c-6.67,0-12.08,5.99-12.08,13.38v7.37c0,7.39,5.41,13.38,12.08,13.38h37.13c6.67,0,12.08,5.99,12.08,13.38v41.12c0,7.39,5.41,13.38,12.08,13.38h6.65c6.67,0,12.08-5.99,12.08-13.38v-41.12c0-7.39,5.41-13.38,12.08-13.38h36.8c6.67,0,12.08-5.99,12.08-13.38v-7.37c0-7.39-5.41-13.38-12.08-13.38Z"/>
  </g>
  <g>
    <g>
      <g>
        <path class="uuid-d4049c95-5f7b-4e95-8dfa-a142dd9843c6" d="m2048.17,4732.94c59.8,5.93,103.51,59.26,97.58,119.05-2.13,21.5-10.33,40.94-22.82,56.67-22.2,28.14-57.87,44.79-96.25,40.98-59.87-5.94-103.58-59.26-97.65-119.14,5.01-50.49,43.72-89.45,91.69-96.85,0,0,.08,0,.16-.06,8.85-1.34,17.97-1.58,27.28-.66Z"/>
        <path class="uuid-2a7a0ace-1d72-4487-81cb-f5f80e6877d8" d="m2048.17,4732.94c59.8,5.93,103.51,59.26,97.58,119.05-2.13,21.5-10.33,40.94-22.82,56.67,15.45-148.89-102.2-175.01-102.2-175.01,0,0,.08,0,.16-.06,8.85-1.34,17.97-1.58,27.28-.66Z"/>
      </g>
      <path class="uuid-7ba1c4ed-d307-4676-8a35-956cd15fa6b8" d="m1945.78,4823.07c-.37,13.02-7.61,43.13,27.55,81.41,32.71,35.62,76.27,22.25,55.3,12.7-27.87-12.69-63.81-50.67-63.57-98.3.24-47.63-19.12-1.3-19.27,4.19Z"/>
    </g>
    <g>
      <g>
        <path class="uuid-a10e3299-ccfe-4f1a-a402-89bfc9817866" d="m1952.37,4609.54c1.32-1.19,2.84-2.36,4.26-3.45,9.51-7.23,20.59-11.46,31.8-12.68,22.43-2.64,45.87,6.31,60.4,25.62l157.37,208.56c14.26,19,16.79,43.36,8.58,63.94-3.61,9.29-9.31,17.7-17.05,24.64-1.43,1.28-2.95,2.45-4.46,3.63-28.81,21.76-70.35,15.98-92.11-12.83l-157.46-208.66c-20.67-27.59-16.5-66.21,8.67-88.75Z"/>
        <path class="uuid-4c522bc8-0064-4965-8038-460afe83e72c" d="m2103.86,4745.49c12.5-17.62,15.3-33.16,15.3-33.16l87.04,115.25c1.45,1.82,2.7,3.83,3.85,5.74.89,1.41,1.59,2.8,2.38,4.3,2.87,5.87,4.86,11.99,5.97,18.16.3,1.57.6,3.13.61,4.78.67,5.46.56,10.88-.41,16.16-.21,2.02-.6,3.84-.99,5.66-.66,3.16-1.6,6.21-2.83,9.15-3.61,9.29-9.31,17.7-17.05,24.64-1.43,1.28-2.95,2.45-4.46,3.63-28.81,21.76-70.35,15.98-92.11-12.83l-80.9-107.16s28.94-6.44,62.13-32.13c9.21-7.15,16.23-14.9,21.47-22.16Z"/>
      </g>
      <path class="uuid-792e030f-c76c-4366-ad77-5d2c3dcc7066" d="m1988.43,4593.41c22.43-2.64,45.87,6.31,60.4,25.62l70.33,93.3s-2.79,15.54-15.3,33.16l-115.43-152.08Z"/>
      <path class="uuid-51f4f21f-e0f2-45f4-9844-61f87a687811" d="m2119.16,4712.33l87.04,115.25c1.45,1.82,2.7,3.83,3.85,5.74.89,1.41,1.59,2.8,2.38,4.3,2.87,5.87,4.86,11.99,5.97,18.16.3,1.57.5,3.23.61,4.78.67,5.46.56,10.88-.41,16.16-.21,2.02-.6,3.84-.99,5.66-.66,3.16-1.6,6.21-2.83,9.15l-110.92-146.02c12.5-17.62,15.3-33.16,15.3-33.16Z"/>
    </g>
    <g>
      <g>
        <path class="uuid-eb7fdaaa-4ee9-4917-a1a7-54f86d01861a" d="m2188.37,4779.2c38.63-41.43,103.59-43.71,145.02-5.09,14.9,13.89,24.78,31.14,29.44,49.5,8.4,32.73.49,68.98-24.3,95.57-38.68,41.49-103.64,43.76-145.12,5.09-34.98-32.61-42.06-83.91-20.18-124.1,0,0,.05-.05.05-.15,4.05-7.4,9.08-14.37,15.1-20.82Z"/>
        <path class="uuid-c16ebf00-c631-4cf8-bd59-33386040444f" d="m2188.37,4779.2c38.63-41.43,103.59-43.71,145.02-5.09,14.9,13.89,24.78,31.14,29.44,49.5-102.78-96.7-189.6-23.44-189.6-23.44,0,0,.05-.05.05-.15,4.05-7.4,9.08-14.37,15.1-20.82Z"/>
      </g>
      <rect class="uuid-18fb4469-f692-46de-9778-32bb482db4f0" x="2161.08" y="4842.71" width="204.95" height="12.16" transform="translate(2585.32 10190.22) rotate(-158.42)"/>
    </g>
    <g>
      <g>
        <path class="uuid-eb7fdaaa-4ee9-4917-a1a7-54f86d01861a" d="m1995.19,4664.83c.81,1.58,1.57,3.35,2.26,4.99,4.58,11.03,5.87,22.82,4.22,33.97-3.13,22.37-17.72,42.78-40.07,51.95l-241.6,99.44c-21.99,8.98-46.2,5.27-64.03-7.88-8.08-5.85-14.77-13.49-19.52-22.74-.87-1.7-1.63-3.47-2.38-5.24-13.76-33.38,2.35-72.1,35.73-85.86l241.73-99.5c31.92-13.01,68.23.8,83.67,30.86Z"/>
        <path class="uuid-4c522bc8-0064-4965-8038-460afe83e72c" d="m1825.31,4776.96c13.88,16.56,28.21,23.19,28.21,23.19l-133.53,55.03c-2.13.94-4.39,1.64-6.52,2.27-1.59.51-3.11.83-4.76,1.21-6.41,1.29-12.83,1.67-19.08,1.18-1.59-.1-3.18-.21-4.78-.62-5.45-.74-10.67-2.21-15.53-4.48-1.9-.71-3.57-1.55-5.23-2.39-2.89-1.44-5.6-3.12-8.13-5.05-8.08-5.85-14.77-13.49-19.52-22.74-.87-1.7-1.63-3.47-2.38-5.24-13.76-33.38,2.35-72.1,35.73-85.86l124.15-51.13s-1.09,29.62,15.35,68.24c4.58,10.72,10.3,19.47,16.01,26.38Z"/>
      </g>
      <path class="uuid-da1f37f8-d5e0-4c8b-949c-f0e56435b681" d="m2001.66,4703.79c-3.13,22.37-17.72,42.78-40.07,51.95l-108.07,44.41s-14.33-6.64-28.21-23.19l176.35-73.17Z"/>
      <path class="uuid-51f4f21f-e0f2-45f4-9844-61f87a687811" d="m1853.52,4800.15l-133.53,55.03c-2.13.94-4.39,1.64-6.52,2.27-1.59.51-3.11.83-4.76,1.21-6.41,1.29-12.83,1.67-19.08,1.18-1.59-.1-3.25-.33-4.78-.62-5.45-.74-10.67-2.21-15.53-4.48-1.9-.71-3.57-1.55-5.23-2.39-2.89-1.44-5.6-3.12-8.13-5.05l169.35-70.34c13.88,16.56,28.21,23.19,28.21,23.19Z"/>
    </g>
  </g>
</svg>