<?xml version="1.0" encoding="utf-8"?>
<!-- Generator: Adobe Illustrator 24.3.0, SVG Export Plug-In . SVG Version: 6.00 Build 0)  -->
<svg version="1.1" id="Layer_1" xmlns="http://www.w3.org/2000/svg" xmlns:xlink="http://www.w3.org/1999/xlink" x="0px" y="0px"
	 viewBox="0 0 512 512" style="enable-background:new 0 0 512 512;" xml:space="preserve">
<style type="text/css">
	.st0{fill:#5BAEE1;}
	.st1{fill:#DFE3E8;}
	.st2{fill:#FFFFFF;}
	.st3{fill:#5174B9;}
	.st4{fill:#333535;}
	.st5{fill:#F2EEEB;}
	.st6{fill:#ECBE88;}
	.st7{fill:#C79F72;}
	.st8{fill:#402D21;}
	.st9{fill:#258CAE;}
	.st10{fill:#231F20;}
	.st11{fill:#4B4B4D;}
	.st12{fill:#3F3F40;}
	.st13{fill:#363435;}
	.st14{fill:#A12A22;}
	.st15{fill:#D38857;}
	.st16{fill:#0F2332;}
	.st17{fill:none;stroke:#FFFFFF;stroke-width:1.0822;stroke-miterlimit:10;}
	.st18{fill:#525252;}
	.st19{fill:#AAC0C6;}
	.st20{opacity:5.000000e-02;fill:#B9D3E8;}
	.st21{fill:#B9D3E8;}
	.st22{fill:#DCECF8;}
	.st23{fill:#1C374C;}
	.st24{opacity:0.67;fill:#F5F6F6;}
	.st25{opacity:0.29;fill:#F5F6F6;}
	.st26{fill:#F5F6F6;}
	.st27{fill:#030405;}
	.st28{fill:#DDDDDD;}
	.st29{fill:#6E686B;}
</style>
<g>
	<path class="st0" d="M371.3,108.2c-15.6-0.1-31.2-1.8-46.6-0.5c-18.4,1.5-36.3-1.8-54-7.5c-23.9-7.6-48.6-15-73.7-17.8
		c-13-1.5-26.4-2.2-39.2,0.7c-12.8,2.9-25.1,9.8-32.2,20.8c-13.5,20.9-4.8,48.3-5.8,73.2c-2.1,48.9-49.6,70.4-61.3,114.6
		c-5,19-1.1,40.7,12.2,55.1C83,360.4,102,366.2,120.4,367c31.1,1.4,62.7-7.6,94.3-7.2c31.8,0.4,59.5,9.7,89.5,19
		c42,13,103.6,4.2,136.3-27.3c27.9-26.9,4.7-72.2-2.8-102.2c-7.2-28.5,2.7-48.1,12.4-74.1c6.9-18.5,9.6-41.7-3.9-56.1
		c-14.6-15.7-39.6-12.9-61-11.3C380.5,108.2,375.9,108.2,371.3,108.2z"/>
	<ellipse class="st1" cx="249.7" cy="384.8" rx="178.5" ry="47"/>
	<g>
		<g>
			<g>
				<g>
					<path class="st2" d="M351.8,276c-2.8-10.2-11.2-18-21.6-20.1L276,244.7l0,0l-4.1,5.2l-18,22.7c-1.3,1.8-3.3,2.7-5.3,2.8
						c-2,0.1-4-0.8-5.4-2.5l-19.1-21.7l-4.4-5l-53.7,14c-10.3,2.7-18.2,10.9-20.5,21.3l-9.1,41.1c-2.4,10.7,5.9,20.7,16.8,20.4
						l97.1-2.5l97.1-2.5c10.9-0.3,18.7-10.8,15.7-21.3L351.8,276z"/>
					<path class="st3" d="M276,244.7L276,244.7l-4.1,5.2l-18,22.7c-1.3,1.8-3.3,2.7-5.3,2.8c-2,0.1-4-0.8-5.4-2.5l-19.1-21.7l-4.4-5
						l-13.4,3.5l40.9,89.3c0.5,1,1.8,1.5,3,1.4l0,0l0,0c1.3,0,2.5-0.6,3-1.6l36.2-91.3L276,244.7z"/>
					<polygon class="st3" points="245.1,274.5 244,273.7 224.9,290.2 227.5,295.9 					"/>
					<polygon class="st3" points="252,274.3 253.1,273.4 273,289 270.7,294.7 					"/>
					<path class="st4" d="M258.8,324.7l-7.3-33.9c-0.1-0.9,0.3-1.8,0.8-2.4l4.5-4.3c1.1-1.2,1.1-3.1,0-4.4l-3.3-3.6
						c-0.5-0.5-1.2-0.8-1.9-0.8l-1.9,0l-2.4,0.1l-1.9,0.1c-0.7,0-1.4,0.4-1.9,0.9l-3.1,3.7c-1.1,1.3-1,3.2,0.2,4.4l4.7,4
						c0.6,0.6,1,1.5,1,2.4l-5.6,34.3l6.5,14l1.7,1.1c0.4,0,0.8,0,1.2-0.1c0.4,0.1,0.8,0.1,1.2,0l1.6-1.1L258.8,324.7z"/>
					<g>
						<g>
							<path class="st5" d="M247.8,339.2l-41.5-89.6l-11.8,3.1l-11.4,15.2c0,0,0,0,0,0l17,6.4l-19.4,12.1c-2.7,1.7-3.1,4.5-0.8,6.5
								l57.5,47.9l12.8-0.3C249.3,340.4,248.2,340,247.8,339.2z"/>
							<path class="st5" d="M263.1,340l54.9-50.8c2.2-2,1.7-4.9-1.1-6.4l-20-11.1l16.6-7.3c0,0,0,0,0,0l-12.1-14.6l-12-2.5
								l-36.7,91.6c-0.4,0.8-1.4,1.3-2.4,1.3L263.1,340z"/>
						</g>
					</g>
					<g>
						<g>
							<path class="st6" d="M290.1,172.5c-0.4,0.4-0.6,0.6-0.9,1c0.5,8,0.4,17.7-1,26.9c0.9,0.3,1.7,0.5,2.7,0.5
								c5.5-0.1,9.8-6.6,9.6-14.4C300.2,178.6,295.6,172.4,290.1,172.5z"/>
							<path class="st6" d="M201.8,174.8c0.4,0.4,0.6,0.5,1,0.9c0,8,0.5,17.7,2.4,26.9c-0.8,0.4-1.7,0.6-2.6,0.6
								c-5.5,0.1-10.1-6.1-10.3-13.9C192,181.4,196.3,174.9,201.8,174.8z"/>
						</g>
					</g>
					<path class="st7" d="M263.7,237.2c-3,3.9-16,3-16,3s-12.9,1.6-16.1-2.1c-1.6-1.9-4.5-4.1-7.1-5.8l-2.3,16.7l2,2.2l19.1,21.7
						c1.4,1.7,3.4,2.6,5.4,2.5c2-0.1,4-1,5.3-2.8l18-22.7l1.8-2.3l-3.1-16.6C268,232.9,265.2,235.3,263.7,237.2z"/>
					<path class="st6" d="M288.8,185.2c0.9-10.3-0.3-27.8-3.2-36.9c-0.8-2.6-3.8-3.9-6.3-2.8c-7.4,3.1-23.4,9.3-34.2,8.9
						c-0.2,0-0.4,0-0.5-0.1c-2.5-0.5-22.2-4.5-32.7-9.1c-2.7-1.2-5.7,0.3-6.5,3.2c-2.3,9-4.5,20-1.9,37.4c0.1,0.6-0.5,0.8-0.9,0.5
						c1.8,18.1,6.3,36.2,16.9,42.8c0,0,8.8,5.2,12,8.9c3.2,3.8,16.1,2.1,16.1,2.1s13,0.9,16-3c3-3.9,11.6-9.6,11.6-9.6
						c9.8-6.9,13.5-24.2,14.5-41.6C289.3,186.1,288.7,185.8,288.8,185.2z"/>
					<path class="st8" d="M203.5,185.7c0.1,0.6-0.7,1-1.1,0.5c-2.9-3.6-6.3-9.5-7.6-14.9c-1-4-4.9-24.3-0.5-28.5
						c6-5.8,8.1-13.6,12.3-19.7c7.5-11.2,29.3-18.8,42.1-12.9c12.7,5.9,26.4,23.6,47.9,10.1c0,0,6.1,14.4-7.8,18.6
						c0,0,8.9,15.8,4,39.2c0,0-0.5,3.7-2.4,7.7c-0.4,0.8-1.6,0.5-1.5-0.4c0.9-10.3-0.3-27.8-3.2-36.9c-0.8-2.6-3.8-3.9-6.3-2.8
						c-7.4,3.1-23.4,9.3-34.2,8.9c-0.2,0-0.4,0-0.5-0.1c-2.5-0.5-22.2-4.5-32.7-9.1c-2.7-1.2-5.7,0.3-6.5,3.2
						C203.2,157.4,201,168.4,203.5,185.7z"/>
					<polygon class="st9" points="222.9,243.5 219.7,246.1 222.1,248.9 					"/>
					<polygon class="st9" points="272.6,242.2 276,244.7 273.6,247.6 					"/>
				</g>
			</g>
			<g>
				<g>
					<path id="XMLID_28_" class="st10" d="M227.6,185.7c0.1,2.5-1.6,4.6-3.7,4.7c-2.1,0.1-3.8-2-3.9-4.5c-0.1-2.5,1.6-4.6,3.7-4.7
						C225.8,181.1,227.6,183.2,227.6,185.7z"/>
					<path id="XMLID_27_" class="st2" d="M226.4,183.1c0,0.8-0.5,1.5-1.2,1.5c-0.7,0-1.3-0.6-1.3-1.5c0-0.8,0.5-1.5,1.2-1.5
						C225.9,181.6,226.4,182.3,226.4,183.1z"/>
					<path id="XMLID_26_" class="st10" d="M269.9,184.6c0.1,2.5-1.6,4.6-3.7,4.7c-2.1,0.1-3.8-2-3.9-4.5c-0.1-2.5,1.6-4.6,3.7-4.7
						C268.1,180,269.8,182,269.9,184.6z"/>
					<path id="XMLID_25_" class="st2" d="M268.7,182c0,0.8-0.5,1.5-1.2,1.5c-0.7,0-1.3-0.6-1.3-1.5c0-0.8,0.5-1.5,1.2-1.5
						C268.1,180.5,268.7,181.2,268.7,182z"/>
					<path id="XMLID_22_" class="st11" d="M284.6,172.2c-2.6,0.6-4.4-1.1-9.6-2.5c-5.2-1.4-18.8-1.5-21-1.3c-2.3,0.2-5.5,1.7-7,2
						c-0.7,0.1-1.8,0.4-3,0.5c0.1,2.8,0.1,5.5,0.2,8.3c1.7,0.3,2.7,2.7,2.9,3.5c0.1,0.8,1.4,9.6,5.4,13c3.9,3.3,13.8,2.4,20.9,1.3
						c7.1-1.1,7.7-7.6,8.6-9.8c0.9-2.2,3-5.2,3-5.2S285.1,178.1,284.6,172.2z M278.9,188c-2.1,4.3-4.6,6.9-11,7.2
						c-6.4,0.3-11.7-0.3-13.6-2.1c-1.9-1.9-4.5-5.4-5.5-16c0,0-1-5.1,4-6.1c5-1,21.7,0.2,25.8,2.3C282.6,175.4,281,183.7,278.9,188z
						"/>
					<path id="XMLID_19_" class="st12" d="M238.8,170.3c-3-1.2-12.3-1.3-17.5-0.9c-5.1,0.4-11.9,2-14.4,2.8
						c-2.5,0.8-5.2-0.2-5.2-0.2l0.2,9.5c0,0,1.2,0.3,2.6,4c1.3,3.7,2.7,7.8,5.4,10.3c2.7,2.5,9,3.6,19.1,1.8
						c10.1-1.8,11.3-12.4,11.5-14.8c0.3-2.4,1.7-3.9,3.5-3.7c0,0,0.1,0,0.1,0c-0.1-2.8-0.1-5.5-0.2-8.3
						C242.3,171,240.5,170.9,238.8,170.3z M238.2,177c-0.5,10.7-2.9,14.4-4.7,16.3c-1.8,1.9-7.1,2.9-13.5,2.8c-6.4,0-9-2.5-11.3-6.7
						c-2.3-4.1-4.3-12.3-0.4-14.7c4-2.4,20.6-3.5,25.6-2.7C239,172.8,238.2,177,238.2,177z"/>
					<path id="XMLID_18_" class="st10" d="M230.5,161.5c-3.3,0.2-11.1,0.9-20.7,4.7c-0.9,0.3-1.9-0.1-2.2-1l0,0
						c-0.3-0.7,0-1.5,0.7-2c2.6-1.6,10-5.5,21.9-6.7c1-0.1,1.8,0.7,1.8,1.6l0,1.6C232.1,160.7,231.4,161.4,230.5,161.5z"/>
					<path id="XMLID_17_" class="st10" d="M256.2,160.8c3.3,0,11.1,0.4,20.9,3.6c0.9,0.3,1.9-0.2,2.1-1.1l0,0
						c0.2-0.7-0.1-1.5-0.8-1.9c-2.7-1.5-10.2-5-22.2-5.5c-1,0-1.8,0.7-1.8,1.7l0,1.6C254.5,160.1,255.3,160.8,256.2,160.8z"/>
					<path id="XMLID_16_" class="st13" d="M201.9,181.5c-0.8-0.5-3.8-4.4-3.8-4.4l-0.2-6.3l3.7,1.2L201.9,181.5z"/>
					<path id="XMLID_15_" class="st13" d="M284.8,181.7c0.7-0.5,3.6-4.6,3.6-4.6l-0.2-6.3l-3.7,1.3L284.8,181.7z"/>
				</g>
				<g>
					<path id="XMLID_14_" class="st14" d="M230.6,212.5c0,0,8.2,0.8,14,0.6c5.8-0.2,13.2-1.3,13.2-1.3s0.4,4.7-2.9,8.7
						c-2.1,2.6-5.3,5-10,4.9c-4.7-0.1-9.8-2.8-11.8-5.4C231,217.5,230.6,212.5,230.6,212.5z"/>
					<path id="XMLID_13_" class="st15" d="M243.4,191.5c0,0,0.4,3.9-1.6,9.2c-0.9,2.5-1.1,5.2-0.2,5.6c0.9,0.3,2.9,0.6,2.9,0.6
						s-5.4,1.1-5.2-1.8C239.6,201.5,242.2,199,243.4,191.5z"/>
				</g>
			</g>
		</g>
		<g>
			<path class="st10" d="M299.2,323.3l-0.4-2.4c2-0.4,3.7-1.5,4.8-3.2c1.1-1.7,1.5-3.7,1-5.7l-9.9-41.2c-1.4-5.9-7.2-9.8-13.1-8.7
				c-5.9,1-10.1,6.6-9.4,12.6l4.6,42.2c0.2,2,1.2,3.8,2.9,5c1.6,1.2,3.6,1.7,5.6,1.4l0.9-0.2l0.4,2.4l-0.9,0.2
				c-2.7,0.5-5.3-0.2-7.5-1.8c-2.2-1.6-3.5-4-3.8-6.7l-4.6-42.2c-0.8-7.3,4.2-14.1,11.4-15.3c7.2-1.3,14.2,3.4,15.9,10.5l9.9,41.2
				c0.6,2.6,0.2,5.3-1.3,7.6C304.1,321.3,301.8,322.8,299.2,323.3"/>
			<path class="st10" d="M273,274.6l-4.3,0.5c-0.8-7.8,4.5-15,12.2-16.3c7.7-1.3,15.1,3.6,17,11.2l-4.2,1c-1.3-5.4-6.6-9-12.1-8
				C276.2,263.9,272.4,269,273,274.6"/>
			<path class="st10" d="M288.6,323.7c0.2,1.3-0.6,2.5-1.9,2.7c-1.3,0.2-2.5-0.6-2.7-1.9c-0.2-1.3,0.6-2.5,1.9-2.7
				C287.2,321.6,288.4,322.4,288.6,323.7"/>
			<path class="st10" d="M301.1,321.5c0.2,1.3-0.6,2.5-1.9,2.7c-1.3,0.2-2.5-0.6-2.7-1.9c-0.2-1.3,0.6-2.5,1.9-2.7
				C299.7,319.4,300.9,320.3,301.1,321.5"/>
			<path class="st10" d="M268.1,232.1l0.9,4.5c3.2,2.7,5.6,6.4,7.6,11.2c3.1,7.6,3.5,15.2,3.5,15.2l3.3-0.1
				C283.3,262.6,282.2,240.8,268.1,232.1z"/>
			<path class="st10" d="M221.1,237c0.1-1.4,0.3-2.8,0.5-4.1c-11.2,6.5-12.2,19.5-12.9,28c-0.1,1.4-0.2,2.6-0.3,3.8
				c-1.5,12.9-4,44.7-4,45l3.3,0.3c0-0.3,2.5-32,4-44.9c0.1-1.2,0.2-2.5,0.4-3.9c0.6-7.9,1.5-17.9,9.1-23.8
				C221,237.2,221,237.1,221.1,237z"/>
			<path class="st10" d="M215.4,316.7c0.2,6-4.6,11-10.6,11.2c-6,0.2-11-4.6-11.2-10.6c-0.2-6,4.6-11,10.6-11.2
				C210.2,305.9,215.2,310.7,215.4,316.7"/>
			<path class="st10" d="M212,316.8c0.1,4.1-3.2,7.6-7.3,7.7c-4.1,0.1-7.6-3.2-7.7-7.3c-0.1-4.1,3.2-7.6,7.3-7.7
				C208.4,309.4,211.9,312.6,212,316.8"/>
		</g>
	</g>
	<g>
		<path class="st2" d="M147,330.7c-0.4-1-1-1.9-1.6-2.8c-4-6.1-7.1-12.1-6.6-19.3h-16.4h-16.4c0.5,7.2-2.6,13.2-6.6,19.3
			c-0.6,0.9-1.2,1.8-1.6,2.8c-1.9,4.1-1.2,9.3-1.2,13.7c0,4,0,8,0,12c0,6.5,0,13,0,19.5c0,5.9,0.6,13.5,6.2,17
			c5.2,3.2,11.9,2,17.7,2.1c0.7,0,1.3,0,2,0c0.7,0,1.3,0,2,0c5.8-0.1,12.5,1.1,17.7-2.1c5.6-3.5,6.2-11.1,6.2-17c0-6.5,0-13,0-19.5
			c0-4,0-8,0-12C148.2,340,148.9,334.8,147,330.7z"/>
		<path class="st16" d="M122.3,294h-16.4c-2.5,0-4.5,2-4.5,4.5v5.7c0,2.5,2,4.5,4.5,4.5l0,0h16.4h16.4l0,0c2.5,0,4.5-2,4.5-4.5v-5.7
			c0-2.5-2-4.5-4.5-4.5H122.3z"/>
		<path class="st0" d="M148.2,356.5c0-4,0-8,0-12c0-1.4,0.1-2.9,0.1-4.5h-52c0,1.5,0.1,3,0.1,4.5c0,4,0,8,0,12c0,6.5,0,13,0,19.5
			c0,0.1,0,0.2,0,0.3h51.8c0-0.1,0-0.2,0-0.3C148.2,369.5,148.2,363,148.2,356.5z"/>
		<path class="st2" d="M114.8,365.7h-10.1c-2.9,0-5.3-2.4-5.3-5.3v-10.1c0-2.9,2.4-5.3,5.3-5.3h10.1c2.9,0,5.3,2.4,5.3,5.3v10.1
			C120.1,363.4,117.7,365.7,114.8,365.7z"/>
		<line class="st17" x1="122.6" y1="350" x2="143.5" y2="350"/>
		<line class="st17" x1="122.6" y1="354.1" x2="143.5" y2="354.1"/>
		<line class="st17" x1="122.6" y1="358.2" x2="143.5" y2="358.2"/>
		<line class="st17" x1="122.6" y1="362.3" x2="143.5" y2="362.3"/>
		<polygon class="st0" points="115,354.4 111.7,354.4 111.7,351.1 108.3,351.1 108.3,354.4 105,354.4 105,357.8 108.3,357.8 
			108.3,361.1 111.7,361.1 111.7,357.8 115,357.8 		"/>
	</g>
	<g>
		<polygon class="st2" points="428.7,251.7 324.4,352 338.3,240.4 		"/>
		<polygon class="st2" points="428.8,251.7 414.9,363.4 324.4,352 324.4,352 428.7,251.7 		"/>
		
			<rect x="323.1" y="259" transform="matrix(0.1242 -0.9923 0.9923 0.1242 30.2868 638.0861)" class="st0" width="107" height="85.8"/>
		
			<rect x="325.7" y="262.5" transform="matrix(0.1241 -0.9923 0.9923 0.1241 29.4951 638.6357)" class="st2" width="101.5" height="80.3"/>
		<path class="st18" d="M367,253.9l1.4-11l4.1,0.5l0.1-1l0-0.1c0.4-3.1,5.9-5,12-4.2c6.1,0.8,10.9,4,10.6,7.1l0,0.1l-0.2,0.9
			l4.1,0.5l-1.4,11L367,253.9z"/>
		<g>
			
				<rect x="342.5" y="261.6" transform="matrix(0.1241 -0.9923 0.9923 0.1241 38.2873 602.5831)" class="st19" width="36" height="36"/>
			<path class="st2" d="M372,293.9c0-2.4-0.7-4.7-1.9-6.8c-0.6-1.2-1.3-2.1-2.2-2.9l0,0c0,0,0,0,0,0c0,0,0,0,0,0l0,0
				c-0.5-0.4-1.1-0.8-1.8-1.1c-0.2-0.1-0.4-0.2-0.6-0.2c-1.1-0.4-2.3-1.2-2.9-2.1l0.2-1.5c2.1-0.8,3.8-3,4.1-5.7c0,0,0,0,0-0.1
				c0.3-0.7,0.5-1.5,0.7-2.3c0.5-3.9-1.1-7-5.3-7.6c-3.9-0.5-6.5,2.1-7,6c-0.1,0.8-0.1,1.7,0.1,2.4c0,0,0,0,0,0.1
				c-0.3,2.7,0.7,5.1,2.4,6.5l-0.2,1.6c0,0-0.1,0-0.1,0c-0.1,0.1-0.2,0.2-0.3,0.2c0,0-0.1,0-0.1,0.1c-0.1,0-0.1,0.1-0.2,0.1
				c-0.1,0-0.1,0.1-0.2,0.1c-0.1,0-0.1,0.1-0.2,0.1c-0.1,0-0.1,0.1-0.2,0.1c-0.1,0-0.1,0-0.2,0.1c-0.1,0-0.2,0.1-0.2,0.1
				c0,0,0,0,0,0c-0.4,0.1-0.7,0.2-1.1,0.3c-0.2,0-0.4,0.1-0.6,0.1c-1,0.1-1.9,0.4-2.7,0.7l0,0c0,0,0,0,0,0c0,0,0,0,0,0l0,0
				c-1.1,0.5-2,1.3-2.9,2.3c-1.6,1.8-2.9,3.8-3.5,6.1c-0.1,0.5-0.2,1-0.3,1.6l4.8,0.6l0.2,0l7.7,1l0.8,0.1l0,0l0.2,0l1.5,0.2
				l6.7,0.8l0.2,0l4.8,0.6C372,295,372,294.5,372,293.9z"/>
		</g>
		
			<rect x="395" y="254.2" transform="matrix(0.1241 -0.9923 0.9923 0.1241 81.0355 634.7523)" class="st19" width="10" height="34.5"/>
		
			<rect x="391.8" y="280" transform="matrix(0.1242 -0.9923 0.9923 0.1242 52.6019 654.0679)" class="st19" width="10" height="34.5"/>
		
			<rect x="393.4" y="267.1" transform="matrix(0.1241 -0.9923 0.9923 0.1241 66.8331 644.4227)" class="st19" width="10" height="34.5"/>
		<g>
			
				<rect x="376.2" y="281.6" transform="matrix(0.1242 -0.9923 0.9923 0.1242 24.1398 651.6026)" class="st19" width="10" height="61.1"/>
			<g>
				<path class="st0" d="M342.6,311.1c-0.3,0-0.5-0.2-0.8-0.4l-1.8-1.7c-0.5-0.5-0.5-1.4,0-1.9c0.5-0.5,1.3-0.5,1.9,0l0.8,0.8
					l3.4-3.5c0.5-0.5,1.3-0.5,1.9,0c0.5,0.5,0.5,1.3,0,1.9l-4.3,4.4C343.4,311,343,311.2,342.6,311.1z"/>
			</g>
		</g>
		<g>
			
				<rect x="374.3" y="296.6" transform="matrix(0.1241 -0.9923 0.9923 0.1241 7.6701 662.885)" class="st19" width="10" height="61.1"/>
			<g>
				<g>
					<path class="st0" d="M340.7,326.1c-0.3,0-0.5-0.2-0.8-0.4l-1.8-1.7c-0.5-0.5-0.5-1.4,0-1.9c0.5-0.5,1.3-0.5,1.9,0l0.8,0.8
						l3.4-3.5c0.5-0.5,1.3-0.5,1.9,0c0.5,0.5,0.5,1.3,0,1.9l-4.3,4.4C341.5,326,341.1,326.1,340.7,326.1z"/>
				</g>
			</g>
		</g>
		<g>
			
				<rect x="372.4" y="311.5" transform="matrix(0.1241 -0.9923 0.9923 0.1241 -8.8237 674.1356)" class="st19" width="10" height="61.1"/>
			<g>
				<path class="st0" d="M338.8,341.1c-0.3,0-0.5-0.2-0.8-0.4l-1.8-1.7c-0.5-0.5-0.5-1.3,0-1.9c0.5-0.5,1.3-0.5,1.9,0l0.8,0.8
					l3.4-3.5c0.5-0.5,1.3-0.5,1.9,0c0.5,0.5,0.5,1.3,0,1.9l-4.3,4.4C339.6,341,339.2,341.1,338.8,341.1z"/>
			</g>
		</g>
	</g>
	<g>
		<path class="st0" d="M320.7,358c-1,0-1.7,0.9-1.6,2l5.7,48.1c0.1,1.1,1.1,2,2.1,1.9l49.8-1.3c1,0,1.8-0.9,1.6-2l-5.7-48.1
			c-0.1-1.1-1.1-2-2.1-1.9L320.7,358z"/>
		<g>
			<path class="st10" d="M324.3,383.3c3.6,0.7,7.3,1.4,11,2.2c20.9,4.5,35.8,2.2,45.1-6.8c0.3,0.3,0.7,0.5,1,0.7
				c0.6,0.5,1.3,0.9,2,1.1c-5.2,5.3-12,8.6-20.5,9.9c-7.9,1.2-17.1,0.7-28-1.6c-3.7-0.8-7.4-1.5-11-2.2c-5.3-1-10.8-2.1-16.2-3.4
				c-10.3-2.4-17.5-2-20.7,1.2c-2.5,2.4-2.3,6-2,8.5c0.5,4,2.3,7.2,5.4,9.5c5.4,4.1,13.4,4.6,19,3.2c1.2-0.3,2.4-0.7,3.6-1
				c3.9-1.2,7.6-2.4,12.3-1l-0.5,3.2c-3.8-1.1-7-0.1-10.6,1c-1.2,0.4-2.4,0.8-3.7,1.1c-3.4,0.8-7.3,1-10.9,0.5
				c-4.1-0.6-7.8-2.1-10.6-4.3c-3.8-2.9-6.2-7.1-6.8-12c0-0.1,0-0.3-0.1-0.5c-0.3-2.2-0.6-7.2,2.9-10.7c4-3.9,11.9-4.5,23.3-1.9
				C313.5,381.2,319,382.3,324.3,383.3z"/>
			<path class="st2" d="M324.4,385.3c3.6,0.7,7.3,1.4,11,2.2c21.7,4.6,37.1,2.2,46.7-7.6c0.1,0.1,0.2,0.1,0.3,0.2
				c-5,5-11.5,8.1-19.5,9.3c-7.8,1.2-16.8,0.7-27.5-1.6c-3.7-0.8-7.4-1.5-11-2.2c-5.3-1-10.8-2.1-16.2-3.4
				c-10.9-2.5-18.3-2-21.9,1.5c-2.1,2.1-2.9,5.2-2.4,9.5c0,0.1,0,0.2,0,0.3c0.6,4.4,2.6,8,6,10.6c5.8,4.4,14.3,5,20.1,3.5
				c1.3-0.3,2.5-0.7,3.6-1c3.7-1.2,7.2-2.3,11.6-1l-0.1,0.3c-4.2-1.2-7.7-0.1-11.4,1c-1.2,0.4-2.4,0.7-3.6,1.1
				c-5.9,1.5-14.5,0.9-20.4-3.6c-3.5-2.7-5.6-6.3-6.1-10.9c0-0.1,0-0.2,0-0.3c-0.5-4.4,0.3-7.6,2.5-9.7c3.7-3.6,11.1-4.1,22.2-1.6
				C313.7,383.2,319.2,384.3,324.4,385.3z"/>
		</g>
		<path class="st2" d="M378.5,384.5c-1.2,1.2-3.2,2.5-4.9,3c0,0,0,0.1,0,0.1c-0.7-0.3-1.5-0.9-1.7-1.7c-0.3-1,0-1.3,0.7-1.7
			c1.3-0.7,2.7-1.5,4-2.2c0,0,0,0,0,0c-0.1,0.9,0.9,3.2,2,2.5L378.5,384.5z"/>
		<path class="st18" d="M396.1,364.6l0.3-0.3c0.7-0.7,1.9-0.6,2.6,0.3l0.1,0.2c0.7,0.9,0.7,2.1,0,2.8l-0.1,0.1
			c1.8,4-0.2,9.9-5.1,13.9c-4.5,3.7-10.1,4.5-13.5,2.3c-0.3,0.5-0.8,0.9-1.5,0.9c-1.2,0-2.2-1.1-2.4-2.4c-0.1-1.1,0.3-2,1.1-2.4
			c-1-3.9,1.1-9.1,5.5-12.7C387.5,363.8,392.7,362.9,396.1,364.6z"/>
		<path class="st4" d="M267.3,401.5c2-6,11.3-8.7,16.4-9.4c6.1-0.7,12.3-0.8,18.3-0.9c6.2-0.1,12.7-0.2,18.8-1
			c4.2-0.6,7.5-1.7,10.6-3.8c1.8-1.1,3-2.7,4.3-4.3c0.8-1,1.7-2.1,2.7-3.1l0.2-0.2l0,0c0,0,0,0,0.1,0l0.4-0.4l0.9,0.4
			c0.7,0.3,1.2,1,1.2,1.8c0,0.3-0.1,0.9-0.7,1.2c-0.8,0.8-1.5,1.7-2.3,2.6c-1.4,1.7-2.8,3.5-4.9,4.9c-3.5,2.3-7.2,3.6-11.8,4.2
			c-6.3,0.9-12.9,1-19.2,1c-5.9,0.1-12.1,0.2-18,0.9c-4.9,0.6-12.7,3.1-14.1,7.5c-0.6,1.8-0.1,3.7,1.6,6c5.1,7,17,8,23.8,6.5
			c6.2-1.4,11.4-4.9,16.9-11.3c0.4-0.5,0.9-1,1.3-1.5c2.6-3.2,5-6.2,10.6-5.4l0,0.8l0.4-0.8c-0.1-0.1-0.2-0.1-0.2-0.1l0,0
			c1,0.4,1.3,1.2,1.3,1.6c0.1,0.5-0.1,1.3-0.8,1.7l-0.4,0.2l-0.5-0.1c-4.1-0.5-5.7,1.5-8.1,4.5c-0.4,0.5-0.9,1-1.3,1.6
			c-5.8,6.8-11.7,10.7-18.4,12.2c-4.3,1-9.5,0.9-14.1-0.1c-5.8-1.3-10.3-4-13-7.8c-1.5-2-2.3-3.9-2.5-5.8
			C266.8,403.8,266.9,402.6,267.3,401.5z M324.2,398.3l-0.6-1.1c-0.4,0.2-0.7,0.8-0.6,1.5c0.1,0.4,0.3,0.8,0.5,1L324.2,398.3z"/>
		<path class="st20" d="M323.6,398.4c0,0,0.1,0,0.2,0.1c0.1,0,0.3,0.1,0.3,0.3c0,0.1,0,0.2-0.2,0.3l-0.1,0l-0.1,0
			c-4.7-0.6-6.7,1.8-9.2,4.9c-0.4,0.5-0.8,1-1.3,1.6c-0.6,0.7-1.1,1.3-1.7,1.9c-0.1-0.2-0.2-0.3-0.3-0.4c0.5-0.6,1.1-1.2,1.6-1.8
			c0.5-0.5,0.9-1.1,1.3-1.6c2.5-3.1,4.5-5.6,9.3-5.1L323.6,398.4z"/>
		<path class="st21" d="M315.9,392.7c-0.6,0-1.2,0.1-1.8,0.1c1.8-0.1,3.6-0.2,5.4-0.4c0.5-0.1,1-0.2,1.5-0.2
			c-0.6,0.1-1.1,0.2-1.7,0.3C318.2,392.5,317,392.6,315.9,392.7z"/>
		<path class="st2" d="M339,380.1c0.2,0.1,0.2,0.3,0.2,0.3c0,0.1-0.1,0.2-0.2,0.2c-0.9,0.9-1.7,1.9-2.5,2.9
			c-1.3,1.7-2.7,3.4-4.7,4.6c-0.8,0.5-1.5,0.9-2.3,1.3c-0.1-0.2-0.2-0.3-0.4-0.4c0.8-0.4,1.6-0.9,2.4-1.4c1.9-1.2,3.2-2.9,4.6-4.6
			c0.7-0.9,1.5-1.9,2.4-2.7l-0.1-0.2c0.1,0,0.2,0,0.3,0c0,0,0,0,0.1,0c0,0,0,0,0,0l0.1-0.1L339,380.1z"/>
		<path class="st21" d="M336.5,374.4c-0.6,0.6-0.6,1.5-0.1,2.1l5.3,5.7c0.5,0.6,1.4,0.6,2,0l2.9-3.1c0.6-0.6,0.6-1.5,0.1-2.1
			l-5.3-5.7c-0.5-0.6-1.4-0.6-2,0L336.5,374.4z"/>
		<g>
			<path class="st21" d="M348,360.1c-5,0.1-8.6,4.3-8,9.3c0.6,5,5.1,9,10.1,8.9c5-0.1,8.6-4.3,8-9.3
				C357.5,363.9,353,359.9,348,360.1z"/>
			<g>
				<path class="st22" d="M348.1,361.2c-4.2,0.1-7.1,3.7-6.6,8.1c0.5,4.4,4.3,7.8,8.5,7.7c4.2-0.1,7.1-3.7,6.6-8.1
					C356.1,364.6,352.3,361.1,348.1,361.2z"/>
				<path class="st23" d="M351,361.7c1,0.4,1.9,0.9,2.7,1.6c0.8,0.7,1.5,1.6,2,2.5c0.5,1,0.9,2,1,3.1c0.1,1.1,0.1,2.2-0.2,3.1
					c-0.3,1-0.8,1.9-1.4,2.7c-0.6,0.8-1.4,1.4-2.3,1.8c-0.9,0.4-1.9,0.6-2.9,0.6c-1,0-2-0.2-3-0.6c-1-0.4-1.9-0.9-2.7-1.7
					c-0.8-0.7-1.5-1.6-2-2.5c-0.5-1-0.9-2-1-3.1c-0.1-1.1-0.1-2.1,0.2-3.1c0.3-1,0.8-1.9,1.4-2.6c0.6-0.7,1.4-1.3,2.3-1.7
					c0.9-0.4,1.8-0.6,2.8-0.6C349.1,361.2,350.1,361.4,351,361.7z M345.3,362c-0.9,0.4-1.6,1.1-2.2,1.8c-0.6,0.8-1,1.6-1.3,2.6
					c-0.3,1-0.3,2-0.2,3c0.1,1,0.4,2.1,0.9,3c0.2,0.5,0.5,0.9,0.8,1.4c0.3,0.4,0.7,0.8,1.1,1.2c0.8,0.7,1.7,1.3,2.6,1.6
					c0.9,0.4,1.9,0.5,2.9,0.5c1,0,1.9-0.3,2.7-0.7c0.8-0.4,1.6-1,2.2-1.8c0.6-0.7,1-1.6,1.3-2.6c0.3-1,0.3-2,0.2-3
					c-0.1-1-0.4-2-0.9-3c-0.5-0.9-1.1-1.8-1.9-2.5c-0.8-0.7-1.7-1.3-2.6-1.7c-0.9-0.4-1.9-0.6-2.9-0.5
					C347.1,361.3,346.2,361.5,345.3,362z"/>
			</g>
		</g>
		<path class="st2" d="M336.4,375.3c-0.1,0.1-0.1,0.4,0,0.5l6.2,6.8c0.1,0.1,0.3,0.1,0.5,0l0,0c0.1-0.1,0.1-0.4,0-0.5l-6.2-6.8
			C336.7,375.2,336.5,375.2,336.4,375.3L336.4,375.3z"/>
		<path class="st24" d="M354.3,365.8c-0.3-1.6-4.7-0.4-5.6,0c-1.8,0.9-2.7,2.6-2.6,4.8c0.1,1.9,1.2,3.4,2.8,4.3
			c1.6,0.8,2.8,0.3,4.3,0.3c-4.4,3.3-12.1-2.4-10.9-8.1c0.6-2.8,3.4-4.5,6-4.6c1.3,0,2.5,0.2,3.7,0.8c0.5,0.3,1,0.6,1.5,1.1
			c0.4,0.4,0.6,1.1,1,1.4L354.3,365.8z"/>
		<path class="st25" d="M354.4,365.5c-0.5,3-3.6,4.7-6.4,4.9c-1.9,0.2-5.1-0.8-5.3-3.4c-0.1,1.3-0.7,2.4-0.2,3.8
			c0.4,1.1,1.2,2.4,1.9,3.4c1.8,2.4,4.5,2.7,6.9,2.1c2.4-0.6,3.9-2.1,4.6-4.6c0.3-1.1,0.4-2.2,0.1-3.4c-0.2-0.6-0.9-2.7-1.5-2.7
			L354.4,365.5z"/>
		<path class="st26" d="M349.8,370.2c-0.1,0-0.2,0.1-0.2,0.2c0,0.1,0.1,0.2,0.2,0.2c0.1,0,0.2-0.1,0.2-0.2
			C350,370.3,349.9,370.2,349.8,370.2z"/>
		<path class="st27" d="M349.2,368.6c-0.4,0-0.7,0.4-0.6,0.8c0.1,0.4,0.4,0.8,0.8,0.8c0.4,0,0.7-0.4,0.6-0.8
			C349.9,368.9,349.6,368.6,349.2,368.6z"/>
		<path class="st27" d="M344.6,374.5c0,0,0,0.1,0.1,0.2l0,0c0.1,0.1,0.1,0.1,0.2,0.1l4.5-5.3c0,0,0-0.1-0.1-0.2l0,0
			c-0.1-0.1-0.1-0.1-0.2-0.1L344.6,374.5z"/>
		<path class="st27" d="M354.7,373.2c-0.1,0-0.3,0.1-0.2,0.3c0,0.1,0.1,0.2,0.3,0.2c0.2,0,0.3-0.1,0.2-0.3
			C355,373.4,354.8,373.2,354.7,373.2z"/>
		<path class="st27" d="M343.4,364.7c-0.1,0-0.3,0.1-0.2,0.3c0,0.2,0.2,0.3,0.3,0.3c0.2,0,0.3-0.1,0.2-0.3
			C343.7,364.8,343.6,364.7,343.4,364.7z"/>
		<path class="st27" d="M344.9,374.3c-0.1,0-0.2,0.1-0.2,0.3c0,0.1,0.1,0.3,0.3,0.2c0.1,0,0.2-0.1,0.2-0.3
			C345.1,374.4,345,374.3,344.9,374.3z"/>
		<path class="st27" d="M353.7,364.3c-0.1,0-0.2,0.1-0.2,0.2c0,0.1,0.1,0.2,0.2,0.2c0.1,0,0.2-0.1,0.2-0.2
			C353.9,364.4,353.8,364.3,353.7,364.3z"/>
		<path class="st27" d="M354.7,365.7c-0.1,0-0.2,0.1-0.2,0.2c0,0.1,0.1,0.2,0.2,0.2c0.1,0,0.2-0.1,0.2-0.2
			C354.9,365.8,354.8,365.7,354.7,365.7z"/>
		<path class="st27" d="M355.3,367.1C355.3,367.1,355.2,367.2,355.3,367.1c-0.1,0.1,0,0.2,0,0.2
			C355.4,367.3,355.4,367.3,355.3,367.1C355.4,367.2,355.4,367.1,355.3,367.1z"/>
		<path class="st27" d="M355.7,368.2C355.6,368.2,355.6,368.3,355.7,368.2c-0.1,0.1,0,0.2,0,0.2
			C355.7,368.4,355.8,368.3,355.7,368.2C355.8,368.3,355.7,368.2,355.7,368.2z"/>
		<path class="st27" d="M355.4,370C355.4,370,355.4,370,355.4,370c-0.1,0.1,0,0.2,0,0.2C355.5,370.1,355.5,370.1,355.4,370
			C355.5,370,355.5,370,355.4,370z"/>
		<path class="st27" d="M352.6,374.9c-0.1,0-0.1,0-0.1,0.1c0,0,0.1,0.1,0.1,0.1c0.1,0,0.1,0,0.1-0.1
			C352.8,374.9,352.7,374.9,352.6,374.9z"/>
		<path class="st27" d="M351.4,375.5c-0.1,0-0.2,0.1-0.2,0.1c0,0.1,0.1,0.1,0.2,0.1c0.1,0,0.2-0.1,0.2-0.1
			C351.6,375.6,351.5,375.5,351.4,375.5z"/>
		<path class="st27" d="M350,375.8c-0.1,0-0.2,0-0.2,0.1c0,0,0.1,0.1,0.2,0.1c0.1,0,0.2,0,0.2-0.1
			C350.1,375.8,350.1,375.8,350,375.8z"/>
		<path class="st27" d="M348.4,375.6c-0.1,0-0.1,0.1-0.1,0.1c0,0.1,0.1,0.1,0.2,0.1c0.1,0,0.1-0.1,0.1-0.1
			C348.6,375.6,348.5,375.6,348.4,375.6z"/>
		<path class="st27" d="M347,375.1c0,0-0.1,0.1-0.1,0.2c0,0.1,0.1,0.2,0.1,0.2c0,0,0.1-0.1,0.1-0.2
			C347.1,375.2,347.1,375.1,347,375.1z"/>
		<path class="st27" d="M343.8,372.6c-0.1,0-0.2,0.1-0.2,0.2c0,0.1,0.1,0.2,0.2,0.2c0.1,0,0.2-0.1,0.2-0.2
			C344,372.7,343.9,372.6,343.8,372.6z"/>
		<path class="st27" d="M342.9,371.3c0,0-0.1,0.1-0.1,0.2c0,0.1,0.1,0.2,0.1,0.2c0,0,0.1-0.1,0.1-0.2
			C343,371.4,343,371.3,342.9,371.3z"/>
		<path class="st27" d="M342.6,370.1C342.5,370.1,342.5,370.2,342.6,370.1c-0.1,0.1,0,0.2,0,0.2
			C342.6,370.3,342.7,370.3,342.6,370.1C342.7,370.2,342.6,370.1,342.6,370.1z"/>
		<path class="st27" d="M342.4,368.6c0,0,0,0.1,0,0.2c0,0.1,0,0.2,0.1,0.2c0,0,0-0.1,0-0.2C342.4,368.7,342.4,368.6,342.4,368.6z"/>
		<path class="st27" d="M342.5,367.3c0,0,0,0.1,0,0.1c0,0.1,0,0.1,0,0.1s0-0.1,0-0.1C342.5,367.4,342.5,367.3,342.5,367.3z"/>
		<path class="st27" d="M342.9,366.4C342.9,366.4,342.9,366.4,342.9,366.4c0.1,0.1,0,0.2,0,0.2C342.9,366.5,342.8,366.5,342.9,366.4
			C342.8,366.4,342.8,366.4,342.9,366.4z"/>
		<path class="st27" d="M344.5,364.1c0,0,0,0.1,0,0.2c0,0.1,0,0.2,0.1,0.2c0,0,0-0.1,0-0.2C344.6,364.2,344.6,364.1,344.5,364.1z"/>
		<path class="st27" d="M345.3,363.5C345.3,363.5,345.3,363.5,345.3,363.5c0,0.1,0,0.2,0,0.2C345.4,363.6,345.4,363.6,345.3,363.5
			C345.4,363.5,345.3,363.5,345.3,363.5z"/>
		<path class="st27" d="M346.3,362.9C346.3,362.9,346.3,363,346.3,362.9c0,0.1,0,0.2,0,0.2S346.3,363.1,346.3,362.9
			C346.3,363,346.3,362.9,346.3,362.9z"/>
		<path class="st27" d="M347.5,362.6c0,0,0,0.1,0.1,0.1c0,0.1,0,0.1,0,0.1c0,0,0-0.1-0.1-0.1C347.5,362.6,347.5,362.6,347.5,362.6z"
			/>
		<path class="st27" d="M348.8,362.7C348.8,362.7,348.8,362.8,348.8,362.7c0,0.1,0,0.2,0,0.2S348.8,362.8,348.8,362.7
			C348.8,362.8,348.8,362.7,348.8,362.7z"/>
		<path class="st27" d="M350.2,362.6c0,0,0,0.1,0.1,0.1c0,0.1,0,0.1,0,0.1c0,0,0-0.1-0.1-0.1C350.1,362.7,350.1,362.6,350.2,362.6z"
			/>
		<path class="st27" d="M351.6,363.1C351.5,363.2,351.5,363.2,351.6,363.1c0,0.1,0,0.2,0,0.2C351.6,363.3,351.6,363.3,351.6,363.1
			C351.6,363.2,351.6,363.1,351.6,363.1z"/>
		<path class="st27" d="M352.4,363.4c0,0-0.1,0.1-0.1,0.1c0,0.1,0,0.1,0.1,0.1c0,0,0.1-0.1,0.1-0.1
			C352.5,363.4,352.4,363.4,352.4,363.4z"/>
	</g>
	<g>
		<path class="st28" d="M224.3,351.8l6.4,22.6c0.4,1.6,1.9,2.5,3.3,2.1l0,0c1.4-0.4,2.1-2,1.7-3.5l-0.6-2l53-15.1
			c2-0.6,3.1-2.9,2.5-5.2l-2.9-10.2c-0.7-2.3-2.8-3.7-4.9-3.2l-53,15.1l-0.6-2c-0.4-1.6-1.9-2.5-3.3-2.1l0,0
			C224.6,348.6,223.9,350.2,224.3,351.8z"/>
		<path class="st18" d="M198.6,360.1l5.9,20.8c0.3,1.1-0.2,2.2-1.2,2.5l0,0c-1,0.3-2-0.4-2.3-1.5l-5.9-20.9
			c-0.3-1.1,0.2-2.2,1.2-2.5l0,0C197.3,358.3,198.3,359,198.6,360.1z"/>
		
			<rect x="210.1" y="353.2" transform="matrix(-0.274 -0.9617 0.9617 -0.274 -79.5729 673.5859)" class="st18" width="8.6" height="27.2"/>
		
			<rect x="243" y="342.1" transform="matrix(-0.2739 -0.9617 0.9617 -0.2739 -28.7328 693.241)" class="st2" width="8.6" height="30.8"/>
		
			<rect x="213.7" y="353.2" transform="matrix(-0.2734 -0.9619 0.9619 -0.2734 -79.7669 673.3951)" class="st2" width="1.5" height="27.2"/>
		<path class="st18" d="M293.4,343.9l0.2,0.9c0.1,0.5,0,1.1-0.5,1.3l-3.4,1.8l-1.3-4.4l3.8-0.3C292.8,343,293.3,343.3,293.4,343.9z"
			/>
		<polygon class="st18" points="308.9,339.4 313.9,339.1 293.7,344.8 293.4,343.8 		"/>
		<path class="st0" d="M282.8,337.3L259,344l5.3,18.6l23.8-6.8c2-0.6,3.2-3,2.5-5.3l-2.9-10.2C287.1,338.1,284.9,336.7,282.8,337.3z
			"/>
		<g>
			<path class="st29" d="M234.7,357.1l3.1,10.9c0.1,0.2,0,0.5-0.3,0.6l0,0c-0.2,0.1-0.4-0.1-0.5-0.3l-3.1-10.9
				c-0.1-0.2,0-0.5,0.3-0.6l0,0C234.4,356.7,234.6,356.8,234.7,357.1z"/>
			<path class="st29" d="M241.3,361.3l1.5,5.2c0.1,0.2,0,0.5-0.3,0.6l0,0c-0.2,0.1-0.4-0.1-0.5-0.3l-1.5-5.2c-0.1-0.2,0-0.5,0.3-0.6
				l0,0C241,361,241.2,361.1,241.3,361.3z"/>
			<path class="st29" d="M245.4,354l3.1,10.9c0.1,0.2,0,0.5-0.3,0.6l0,0c-0.2,0.1-0.4-0.1-0.5-0.3l-3.1-10.9c-0.1-0.2,0-0.5,0.3-0.6
				l0,0C245.1,353.6,245.3,353.8,245.4,354z"/>
			<path class="st29" d="M251.9,358.3l1.5,5.2c0.1,0.2,0,0.5-0.3,0.6l0,0c-0.2,0.1-0.4-0.1-0.5-0.3l-1.5-5.2c-0.1-0.2,0-0.5,0.3-0.6
				l0,0C251.6,357.9,251.9,358.1,251.9,358.3z"/>
			<path class="st29" d="M256.1,351l3.1,10.9c0.1,0.2,0,0.5-0.3,0.6l0,0c-0.2,0.1-0.4-0.1-0.5-0.3l-3.1-10.9c-0.1-0.2,0-0.5,0.3-0.6
				l0,0C255.8,350.6,256,350.7,256.1,351z"/>
		</g>
		<path class="st18" d="M262.7,353.1c-0.7-2.4-1.9-6.2-2.8-8.4c-0.5-1.2-1.6-0.7-1.2,0.5l4.7,16.6c0.4,1.2,1.5,1.1,1.3-0.2
			C264.3,359.4,263.4,355.4,262.7,353.1z"/>
	</g>
	<path class="st0" d="M172.2,347.5l-17.7,5.6c-1.3,0.4-2,1.9-1.6,3.2l12.1,38.3c0.4,1.4,1.8,2.1,3.2,1.7l17.7-5.6
		c1.3-0.4,2-1.9,1.6-3.2l-12.1-38.3C174.9,347.8,173.5,347.1,172.2,347.5z M170.5,390.5c-1.8,0.6-3.7-0.4-4.3-2.2
		c-0.6-1.8,0.4-3.7,2.2-4.3c1.8-0.6,3.7,0.4,4.3,2.2C173.3,388,172.3,390,170.5,390.5z M167.5,381c-1.8,0.6-3.7-0.4-4.3-2.2
		c-0.6-1.8,0.4-3.7,2.2-4.3c1.8-0.6,3.7,0.4,4.3,2.2C170.3,378.6,169.3,380.5,167.5,381z M164.6,371.9c-1.8,0.6-3.7-0.4-4.3-2.2
		c-0.6-1.8,0.4-3.7,2.2-4.3c1.8-0.6,3.7,0.4,4.3,2.2C167.4,369.4,166.4,371.3,164.6,371.9z M161.6,362.3c-1.8,0.6-3.7-0.4-4.3-2.2
		c-0.6-1.8,0.4-3.7,2.2-4.3c1.8-0.6,3.7,0.4,4.3,2.2C164.4,359.8,163.4,361.7,161.6,362.3z M180.7,387.3c-1.8,0.6-3.7-0.4-4.3-2.2
		c-0.6-1.8,0.4-3.7,2.2-4.3c1.8-0.6,3.7,0.4,4.3,2.2C183.5,384.8,182.5,386.8,180.7,387.3z M177.7,377.8c-1.8,0.6-3.7-0.4-4.3-2.2
		c-0.6-1.8,0.4-3.7,2.2-4.3c1.8-0.6,3.7,0.4,4.3,2.2C180.5,375.3,179.5,377.3,177.7,377.8z M174.8,368.7c-1.8,0.6-3.7-0.4-4.3-2.2
		c-0.6-1.8,0.4-3.7,2.2-4.3c1.8-0.6,3.7,0.4,4.3,2.2C177.6,366.2,176.6,368.1,174.8,368.7z M171.7,359.1c-1.8,0.6-3.7-0.4-4.3-2.2
		c-0.6-1.8,0.4-3.7,2.2-4.3c1.8-0.6,3.7,0.4,4.3,2.2C174.5,356.6,173.6,358.5,171.7,359.1z"/>
	<g>
		<path class="st0" d="M170.3,405.3L170.3,405.3c-0.5-2,0.6-4,2.6-4.5l13.7-3.7c2-0.5,4,0.6,4.5,2.6l0,0c0.5,2-0.6,4-2.6,4.5
			l-13.7,3.7C172.9,408.4,170.9,407.3,170.3,405.3z"/>
		<path class="st16" d="M188.6,404.2c2-0.5,3.1-2.5,2.6-4.5c-0.5-2-2.5-3.1-4.5-2.6l-6.9,1.8l1.9,7.1L188.6,404.2z"/>
		<path class="st16" d="M184.1,416.7L184.1,416.7c-1.3-1.6-1.1-3.9,0.5-5.2l10.9-9.1c1.6-1.3,3.9-1.1,5.2,0.5l0,0
			c1.3,1.6,1.1,3.9-0.5,5.2l-10.9,9.1C187.7,418.5,185.4,418.3,184.1,416.7z"/>
		<path class="st0" d="M200.2,408.1c1.6-1.3,1.8-3.6,0.5-5.2c-1.3-1.6-3.6-1.8-5.2-0.5l-5.5,4.5l4.7,5.6L200.2,408.1z"/>
		<path class="st0" d="M219.8,403.6L219.8,403.6c-0.7,1.9-2.7,2.9-4.6,2.3l-13.5-4.6c-1.9-0.7-2.9-2.7-2.3-4.6l0,0
			c0.7-1.9,2.7-2.9,4.6-2.3l13.5,4.6C219.4,399.6,220.4,401.7,219.8,403.6z"/>
		<path class="st16" d="M204.1,394.3c-1.9-0.7-4,0.4-4.6,2.3c-0.7,1.9,0.4,4,2.3,4.6l6.7,2.3l2.4-6.9L204.1,394.3z"/>
	</g>
	<g>
		<g>
			<path class="st0" d="M269.8,378.4c1.2-1.4,2.5-2.8,3.7-4.1c0.6-0.7,1.3-1.4,1.9-2.1c1.2-1.3,1.3-3.6-0.2-4.8
				c-1.5-1.2-3.5-1.1-4.8,0.3c-0.6,0.7-1.3,1.4-1.9,2.1c-1.2,1.4-2.5,2.8-3.7,4.1c-2.1-0.8-4.7-0.3-6.3,1.5
				c-0.2,0.3-0.5,0.5-0.7,0.8c-1.5,1.7-3.1,3.4-4.6,5.2c-7.6,8.5-15.2,17-22.9,25.5c-1.2,1.3-1.7,3.1-1.4,4.9c0.4,2,1.9,3.2,3.3,4.5
				c1.6,1.4,3.5,2.4,5.7,1.8c1.2-0.3,2.2-1,3-1.9c3.2-3.6,6.4-7.1,9.6-10.7c4.6-5.2,9.2-10.3,13.8-15.5c1.4-1.5,2.7-3,4.1-4.6
				c0.2-0.3,0.5-0.6,0.8-0.9C270.6,382.7,270.9,380.4,269.8,378.4z M236.9,415.6c-1.8,0.1-3-1.4-4.2-2.5c-1.3-1.2-1.7-3-0.4-4.4
				c2.8-3.1,5.6-6.2,8.4-9.4c4.7-5.2,9.4-10.5,14.1-15.7c1.6-1.8,3.1-3.5,4.7-5.3c0.3-0.4,0.7-0.8,1-1.1c1.1-1.3,2.7-1.4,4.1-0.5
				c0.6,0.4,1.1,0.2,1.4-0.2c0,0,0.1-0.1,0.1-0.1c0.8-0.9,1.6-1.8,2.4-2.7l1.1,0.9c-0.8,0.9-1.6,1.8-2.4,2.7
				c-0.4,0.4-0.5,1.1-0.1,1.6c2,2.5-0.3,4.4-1.9,6.2c-8.2,9.2-16.5,18.4-24.7,27.6C239.5,413.8,238.4,415.5,236.9,415.6z"/>
			<path class="st0" d="M262,382.9l-4-3.6c-0.4-0.3-1-0.3-1.3,0.1c-0.3,0.4-0.3,1,0.1,1.3l4,3.6c0.4,0.3,1,0.3,1.3-0.1
				C262.4,383.8,262.4,383.2,262,382.9z"/>
			<path class="st0" d="M257.8,385.1l-3-2.7c-0.3-0.3-0.8-0.1-1.1,0.2c-0.3,0.4-0.4,0.9-0.1,1.2l3,2.7c0.3,0.3,0.8,0.2,1.1-0.2
				C258,385.9,258.1,385.3,257.8,385.1z"/>
			<path class="st0" d="M255,388.2l-3-2.7c-0.3-0.3-0.8-0.1-1.1,0.2c-0.3,0.4-0.4,0.9-0.1,1.2l3,2.7c0.3,0.3,0.8,0.1,1.1-0.2
				C255.2,389,255.3,388.5,255,388.2z"/>
			<path class="st0" d="M253.6,392.2l-4-3.6c-0.4-0.3-1-0.3-1.3,0.1c-0.3,0.4-0.3,1,0.1,1.3l4,3.6c0.4,0.3,1,0.3,1.3-0.1
				C254.1,393.1,254,392.6,253.6,392.2z"/>
			<path class="st0" d="M249.4,394.4l-2.9-2.6c-0.3-0.3-0.8-0.1-1.1,0.2c-0.3,0.4-0.4,0.9-0.1,1.2l2.9,2.6c0.3,0.3,0.8,0.1,1.1-0.2
				C249.6,395.2,249.7,394.6,249.4,394.4z"/>
			<path class="st0" d="M246.6,397.5l-2.9-2.6c-0.3-0.3-0.8-0.1-1.1,0.2c-0.3,0.4-0.4,0.9-0.1,1.2l2.9,2.6c0.3,0.3,0.8,0.1,1.1-0.2
				C246.8,398.3,246.9,397.8,246.6,397.5z"/>
			<path class="st0" d="M245.1,401.7l-4-3.6c-0.4-0.3-1-0.3-1.3,0.1c-0.3,0.4-0.3,1,0.1,1.3l4,3.6c0.4,0.3,1,0.3,1.3-0.1
				C245.6,402.6,245.5,402,245.1,401.7z"/>
			<path class="st0" d="M240.9,403.9l-2.9-2.6c-0.3-0.3-0.8-0.1-1.1,0.2c-0.3,0.4-0.4,0.9-0.1,1.2l2.9,2.6c0.3,0.3,0.8,0.1,1.1-0.2
				C241.1,404.6,241.2,404.1,240.9,403.9z"/>
			<path class="st0" d="M238.1,407l-2.9-2.6c-0.3-0.3-0.8-0.1-1.1,0.2c-0.3,0.4-0.4,0.9-0.1,1.2l2.9,2.6c0.3,0.3,0.8,0.1,1.1-0.2
				C238.3,407.8,238.4,407.2,238.1,407z"/>
		</g>
	</g>
</g>
</svg>
