<svg xmlns="http://www.w3.org/2000/svg" viewBox="0 0 48 48"><title>20-Check</title><g id="_20-Check" data-name="20-Check"><path d="M36,48H2a1,1,0,0,1-1-1V5A1,1,0,0,1,2,4H13V6H3V46H35V41h2v6A1,1,0,0,1,36,48Z"/><path d="M37,35H35V6H25V4H36a1,1,0,0,1,1,1Z"/><path d="M25,10H13a1,1,0,0,1-1-1V3a1,1,0,0,1,1-1h2.549a3.977,3.977,0,0,1,6.9,0H25a1,1,0,0,1,1,1V9A1,1,0,0,1,25,10ZM14,8H24V4H21.816a1,1,0,0,1-.941-.665,1.984,1.984,0,0,0-3.75,0A1,1,0,0,1,16.184,4H14Z"/><path d="M32,44H12a1,1,0,0,1-.707-.293l-6-6A1,1,0,0,1,5,37V9A1,1,0,0,1,6,8h4v2H7V36.586L12.414,42H31V41h2v2A1,1,0,0,1,32,44Z"/><path d="M33,35H31V10H28V8h4a1,1,0,0,1,1,1Z"/><path d="M13,43H11V38H6V36h6a1,1,0,0,1,1,1Z"/><path d="M19,34a9.01,9.01,0,0,1-9-9V15h2V25a7,7,0,0,0,14,0V15h2V25A9.01,9.01,0,0,1,19,34Z"/><path d="M15,20H11a1,1,0,0,1-1-1V15a1,1,0,0,1,1-1h4a1,1,0,0,1,1,1v4A1,1,0,0,1,15,20Zm-3-2h2V16H12Z"/><path d="M27,20H23a1,1,0,0,1-1-1V15a1,1,0,0,1,1-1h4a1,1,0,0,1,1,1v4A1,1,0,0,1,27,20Zm-3-2h2V16H24Z"/><path d="M41,39H21a3,3,0,0,1-3-3V33h2v3a1,1,0,0,0,1,1H41a1,1,0,0,0,1-1V24h2V36A3,3,0,0,1,41,39Z"/><path d="M43,25a4,4,0,1,1,4-4A4,4,0,0,1,43,25Zm0-6a2,2,0,1,0,2,2A2,2,0,0,0,43,19Z"/></g></svg>