<?xml version="1.0" encoding="utf-8"?>
<!-- Generator: Adobe Illustrator 22.1.0, SVG Export Plug-In . SVG Version: 6.00 Build 0)  -->
<svg version="1.1" id="Icon_Set" xmlns="http://www.w3.org/2000/svg" xmlns:xlink="http://www.w3.org/1999/xlink" x="0px" y="0px"
	 viewBox="0 0 512 512" style="enable-background:new 0 0 512 512;" xml:space="preserve">
<style type="text/css">
	.st0{fill:#F0C48A;}
	.st1{fill:#FD919E;}
	.st2{fill:#4C4372;}
	.st3{fill:#D3E6F8;}
	.st4{fill:#A4CFF2;}
	.st5{fill:#7BABF1;}
	.st6{fill:#FFFFFF;}
	.st7{fill:#E8677D;}
	.st8{fill:none;stroke:#4C4372;stroke-width:12;stroke-linecap:round;stroke-linejoin:round;stroke-miterlimit:10;}
</style>
<g id="Radiation_Theraphy">
	<g>
		<g>
			<circle class="st0" cx="256" cy="256.001" r="206.999"/>
		</g>
	</g>
	<g>
		<g>
			<path class="st3" d="M388.756,126.726c0-12.082-9.794-21.876-21.876-21.876H176.128h-11.412
				c-38.337,0-69.415,31.078-69.415,69.415v11.689v243.369h53.873V212.512c0-14.668,11.89-26.558,26.558-26.558H366.88
				c12.082,0,21.876-9.794,21.876-21.876V126.726z"/>
		</g>
		<g>
			<g>
				<path class="st4" d="M126.752,212.513v216.81h22.422v-216.81c0-14.668,11.89-26.559,26.558-26.559H153.31
					C138.642,185.954,126.752,197.845,126.752,212.513z"/>
			</g>
			<g>
				<path class="st4" d="M366.88,104.85h-22.422c12.082,0,21.876,9.794,21.876,21.876v37.352c0,12.081-9.794,21.875-21.876,21.875
					h22.422c12.082,0,21.876-9.794,21.876-21.875v-37.352C388.756,114.645,378.961,104.85,366.88,104.85z"/>
			</g>
		</g>
		<g>
			<path class="st2" d="M149.174,435.323H95.3c-3.313,0-6-2.687-6-6V174.265c0-41.583,33.831-75.414,75.415-75.414H366.88
				c15.371,0,27.876,12.505,27.876,27.876v37.353c0,15.37-12.505,27.875-27.876,27.875H175.732
				c-11.336,0-20.558,9.223-20.558,20.559v216.811C155.174,432.637,152.487,435.323,149.174,435.323z M101.3,423.323h41.874V212.513
				c0-17.953,14.605-32.559,32.558-32.559H366.88c8.754,0,15.876-7.121,15.876-15.875v-37.353c0-8.754-7.122-15.876-15.876-15.876
				H164.715c-34.967,0-63.415,28.447-63.415,63.414V423.323z"/>
		</g>
		<g>
			<path class="st4" d="M326.025,205.98h-85.684c-10.388,0-18.81-8.421-18.81-18.81v-85.684c0-10.388,8.421-18.81,18.81-18.81
				h85.684c10.388,0,18.81,8.421,18.81,18.81v85.684C344.834,197.559,336.413,205.98,326.025,205.98z"/>
		</g>
		<g>
			<rect x="186.746" y="374.774" class="st4" width="192.382" height="54.549"/>
		</g>
		<g>
			<rect x="336.39" y="374.774" class="st5" width="42.738" height="54.549"/>
		</g>
		<g>
			<rect x="149.174" y="339.711" class="st3" width="267.525" height="35.063"/>
		</g>
		<g>
			<rect x="336.39" y="339.711" class="st4" width="80.309" height="35.063"/>
		</g>
		<g>
			<path class="st7" d="M375.734,339.711H251.245c-9.47,0-17.146-7.677-17.146-17.146v0c0-9.47,7.677-17.146,17.146-17.146h124.489
				c9.47,0,17.146,7.677,17.146,17.146v0C392.88,332.035,385.204,339.711,375.734,339.711z"/>
		</g>
		<g>
			<path class="st1" d="M296.343,305.419h-45.099c-9.47,0-17.146,7.677-17.146,17.146v0c0,9.47,7.677,17.146,17.146,17.146h45.099
				c9.47,0,17.146-7.677,17.146-17.146v0C313.489,313.095,305.813,305.419,296.343,305.419z"/>
		</g>
		<g>
			<path class="st6" d="M211.739,339.711h-16.386c-12.349,0-22.36-10.011-22.36-22.36v0c0-12.349,10.011-22.36,22.36-22.36h16.386
				c12.349,0,22.36,10.011,22.36,22.36v0C234.099,329.7,224.088,339.711,211.739,339.711z"/>
		</g>
		<g>
			<path class="st5" d="M316.374,227.594h-66.382c-4.148,0-7.511-3.363-7.511-7.511V205.98h81.405v14.103
				C323.885,224.231,320.522,227.594,316.374,227.594z"/>
		</g>
		<g>
			<path class="st5" d="M326.025,82.677h-23.976c10.388,0,18.809,8.421,18.809,18.809v85.684c0,10.389-8.421,18.81-18.809,18.81
				h23.976c10.388,0,18.81-8.422,18.81-18.81v-85.684C344.834,91.098,336.413,82.677,326.025,82.677z"/>
		</g>
		<g>
			<circle class="st1" cx="256.486" cy="144.328" r="15.153"/>
		</g>
		<g>
			<path class="st2" d="M416.699,380.774H149.174c-3.313,0-6-2.687-6-6v-35.063c0-3.313,2.687-6,6-6h267.525c3.313,0,6,2.687,6,6
				v35.063C422.699,378.088,420.013,380.774,416.699,380.774z M155.174,368.774h255.525v-23.063H155.174V368.774z"/>
		</g>
		<g>
			<path class="st2" d="M211.739,345.711h-16.386c-15.638,0-28.36-12.722-28.36-28.359s12.722-28.36,28.36-28.36h16.386
				c15.638,0,28.36,12.723,28.36,28.36S227.376,345.711,211.739,345.711z M195.353,300.991c-9.021,0-16.36,7.339-16.36,16.36
				c0,9.021,7.339,16.359,16.36,16.359h16.386c9.021,0,16.36-7.339,16.36-16.359c0-9.021-7.339-16.36-16.36-16.36H195.353z"/>
		</g>
		<g>
			<path class="st2" d="M375.734,345.711h-124.49c-12.763,0-23.146-10.383-23.146-23.146s10.383-23.146,23.146-23.146h124.49
				c12.763,0,23.146,10.384,23.146,23.146S388.497,345.711,375.734,345.711z M251.245,311.419c-6.146,0-11.146,5-11.146,11.146
				c0,6.146,5,11.146,11.146,11.146h124.49c6.146,0,11.146-5,11.146-11.146c0-6.146-5-11.146-11.146-11.146H251.245z"/>
		</g>
		<g>
			<path class="st2" d="M296.344,345.711h-45.099c-12.763,0-23.146-10.383-23.146-23.146s10.383-23.146,23.146-23.146h45.099
				c12.763,0,23.146,10.384,23.146,23.146S309.106,345.711,296.344,345.711z M251.245,311.419c-6.146,0-11.146,5-11.146,11.146
				c0,6.146,5,11.146,11.146,11.146h45.099c6.146,0,11.146-5,11.146-11.146c0-6.146-5-11.146-11.146-11.146H251.245z"/>
		</g>
		<g>
			<path class="st2" d="M379.128,435.323H186.746c-3.313,0-6-2.687-6-6v-54.549c0-3.313,2.687-6,6-6h192.382c3.313,0,6,2.687,6,6
				v54.549C385.128,432.637,382.441,435.323,379.128,435.323z M192.746,423.323h180.382v-42.549H192.746V423.323z"/>
		</g>
		<g>
			<path class="st2" d="M316.374,233.594h-66.382c-7.45,0-13.511-6.061-13.511-13.511v-14.104c0-3.313,2.687-6,6-6h81.405
				c3.313,0,6,2.687,6,6v14.104C329.886,227.533,323.824,233.594,316.374,233.594z M248.48,211.979v8.104
				c0,0.833,0.678,1.511,1.511,1.511h66.382c0.834,0,1.512-0.678,1.512-1.511v-8.104H248.48z"/>
		</g>
		<g>
			<path class="st2" d="M326.025,211.979h-85.685c-13.68,0-24.81-11.13-24.81-24.81v-85.684c0-13.68,11.129-24.81,24.81-24.81
				h85.685c13.68,0,24.809,11.13,24.809,24.81v85.684C350.834,200.85,339.705,211.979,326.025,211.979z M240.341,88.677
				c-7.063,0-12.81,5.746-12.81,12.81v85.684c0,7.063,5.746,12.81,12.81,12.81h85.685c7.062,0,12.809-5.746,12.809-12.81v-85.684
				c0-7.063-5.746-12.81-12.809-12.81H240.341z"/>
		</g>
		<g>
			<path class="st2" d="M283.183,273.984c-10.659,0-20.682-4.151-28.219-11.689c-2.343-2.343-2.343-6.142,0-8.484
				c2.343-2.344,6.143-2.344,8.485,0c5.271,5.271,12.28,8.174,19.734,8.174c7.455,0,14.463-2.903,19.733-8.174
				c2.344-2.344,6.144-2.343,8.485-0.001c2.344,2.344,2.344,6.143,0.001,8.485C303.864,269.833,293.843,273.984,283.183,273.984z"/>
		</g>
		<g>
			<path class="st2" d="M283.183,254.213c-5.159,0-10.318-1.964-14.245-5.892c-2.344-2.343-2.344-6.142,0-8.484
				c2.342-2.344,6.143-2.344,8.484,0c3.178,3.176,8.344,3.176,11.521,0c2.342-2.344,6.143-2.344,8.484,0
				c2.344,2.343,2.344,6.142,0,8.484C293.501,252.249,288.342,254.213,283.183,254.213z"/>
		</g>
		<g>
			<path class="st2" d="M283.183,293.927c-15.986,0-31.016-6.226-42.321-17.53c-2.343-2.343-2.343-6.142,0-8.484
				c2.343-2.344,6.143-2.344,8.485,0c9.038,9.037,21.054,14.015,33.835,14.015c12.782,0,24.798-4.978,33.835-14.015
				c2.344-2.344,6.144-2.343,8.485-0.001c2.344,2.344,2.344,6.143,0.001,8.485C314.199,287.701,299.17,293.927,283.183,293.927z"/>
		</g>
		<g>
			<path class="st2" d="M256.486,165.481c-11.664,0-21.153-9.489-21.153-21.153s9.489-21.153,21.153-21.153
				s21.153,9.489,21.153,21.153S268.15,165.481,256.486,165.481z M256.486,135.175c-5.047,0-9.153,4.106-9.153,9.153
				s4.106,9.153,9.153,9.153c5.047,0,9.153-4.106,9.153-9.153S261.533,135.175,256.486,135.175z"/>
		</g>
		<g>
			<path class="st6" d="M313.698,184.882L313.698,184.882c-6.26,0-11.335-5.075-11.335-11.335v-58.434
				c0-6.26,5.075-11.335,11.335-11.335h0c6.26,0,11.335,5.075,11.335,11.335v58.434
				C325.032,179.807,319.958,184.882,313.698,184.882z"/>
		</g>
		<g>
			<path class="st2" d="M313.697,190.882c-9.558,0-17.334-7.776-17.334-17.335v-58.434c0-9.559,7.776-17.335,17.334-17.335
				c9.559,0,17.335,7.776,17.335,17.335v58.434C331.032,183.105,323.256,190.882,313.697,190.882z M313.697,109.778
				c-2.941,0-5.334,2.394-5.334,5.335v58.434c0,2.941,2.393,5.335,5.334,5.335s5.335-2.394,5.335-5.335v-58.434
				C319.032,112.172,316.639,109.778,313.697,109.778z"/>
		</g>
		<g>
			<g>
				<path class="st2" d="M325.032,136.386h-22.669c-3.313,0-6-2.687-6-6s2.687-6,6-6h22.669c3.313,0,6,2.687,6,6
					S328.346,136.386,325.032,136.386z"/>
			</g>
			<g>
				<path class="st2" d="M325.032,164.274h-22.669c-3.313,0-6-2.687-6-6s2.687-6,6-6h22.669c3.313,0,6,2.687,6,6
					S328.346,164.274,325.032,164.274z"/>
			</g>
		</g>
	</g>
</g>
</svg>
