<svg id="Layer_1" data-name="Layer 1" xmlns="http://www.w3.org/2000/svg" viewBox="0 0 48 48"><defs><style>.cls-1{fill:none;stroke:#000;stroke-linecap:round;stroke-linejoin:round;stroke-width:2px;}</style></defs><title>bandage</title><polyline class="cls-1" points="4 4 19 4 19 23"/><path class="cls-1" d="M4,4c2.18,12.37.42,33,.08,35.86A3.73,3.73,0,0,0,7.79,44H34.09A9.91,9.91,0,0,0,44,34.09V32.62A2.71,2.71,0,0,0,40.62,30C29.21,32.77,19,29.13,19,23.29"/><line class="cls-1" x1="4.08" y1="39.86" x2="19.41" y2="25.23"/><line class="cls-1" x1="12.35" y1="43.82" x2="21" y2="34.12"/><line class="cls-1" x1="21" y1="28" x2="21" y2="44"/><line class="cls-1" x1="29" y1="31.14" x2="26.14" y2="44"/><line class="cls-1" x1="35.43" y1="31.14" x2="32.57" y2="44"/><line class="cls-1" x1="39.67" y1="30.43" x2="40.53" y2="41.15"/><line class="cls-1" x1="4.71" y1="9.71" x2="18.29" y2="11.86"/><line class="cls-1" x1="5.43" y1="16.14" x2="19" y2="18.29"/><line class="cls-1" x1="5.43" y1="21.86" x2="19" y2="24"/><line class="cls-1" x1="14" y1="29.71" x2="4.71" y2="31.86"/><rect class="cls-1" x="-428" y="-156" width="700" height="700"/></svg>